<svg width="48" height="30" viewBox="0 0 48 30" fill="none" xmlns="http://www.w3.org/2000/svg">
<path d="M23.2134 8.66H25.8874C26.802 8.66 27.5207 8.786 28.0434 9.038C28.566 9.28067 28.9347 9.65867 29.1494 10.172C29.3734 10.676 29.4854 11.348 29.4854 12.188V16.318C29.4854 17.1767 29.3734 17.872 29.1494 18.404C28.9347 18.936 28.5707 19.3373 28.0574 19.608C27.544 19.8693 26.8487 20 25.9714 20H23.2134V8.66ZM25.9154 18.558C26.3727 18.558 26.704 18.4787 26.9094 18.32C27.1147 18.1613 27.2454 17.942 27.3014 17.662C27.3574 17.3727 27.3854 16.948 27.3854 16.388V12.048C27.3854 11.544 27.3527 11.1613 27.2874 10.9C27.222 10.6387 27.082 10.4473 26.8674 10.326C26.662 10.1953 26.3354 10.13 25.8874 10.13H25.2714V18.558H25.9154ZM31.0063 8.66H33.7363C34.931 8.66 35.8223 8.88867 36.4103 9.346C36.9983 9.794 37.2923 10.5687 37.2923 11.67C37.2923 12.3887 37.185 12.9767 36.9703 13.434C36.765 13.882 36.4057 14.2087 35.8923 14.414L37.4743 20H35.4023L34.0443 14.806H33.0643V20H31.0063V8.66ZM33.7223 13.518C34.3103 13.518 34.7257 13.3827 34.9683 13.112C35.2203 12.8413 35.3463 12.398 35.3463 11.782C35.3463 11.1847 35.2343 10.7507 35.0103 10.48C34.7957 10.2093 34.4037 10.074 33.8343 10.074H33.0643V13.518H33.7223Z" fill="black"/>
<rect x="6" y="7" width="5" height="4" fill="#808080"/>
<rect x="6" y="13" width="5" height="4" fill="#808080"/>
<rect y="7" width="5" height="4" fill="#808080"/>
<rect y="13" width="5" height="4" fill="#808080"/>
<rect x="12" y="7" width="5" height="4" fill="#808080"/>
<path fill-rule="evenodd" clip-rule="evenodd" d="M16 20C18.2091 20 20 18.2091 20 16C20 13.7909 18.2091 12 16 12C13.7909 12 12 13.7909 12 16C12 18.2091 13.7909 20 16 20ZM15.5 12.6667V15.7929L13.6464 17.6464L14.3536 18.3536L16.3536 16.3536L16.5 16.2071V16V12.6667H15.5Z" fill="#808080"/>
</svg>
