<svg width="20" height="14" viewBox="0 0 20 14" fill="none" xmlns="http://www.w3.org/2000/svg">
<path d="M4.5 8C2.01472 8 -2.1727e-07 9.79086 0 12L9 12C9 9.79086 6.98528 8 4.5 8Z" v-bind:fill="svgcolor"/>
<path d="M15.5 8C13.0147 8 11 9.79086 11 12L20 12C20 9.79086 17.9853 8 15.5 8Z" v-bind:fill="svgcolor"/>
<path d="M7.5 3.95852C7.5 5.61538 6.15685 6.95852 4.5 6.95852C2.84315 6.95852 1.5 5.61538 1.5 3.95852C1.5 2.30167 2.84315 0.958521 4.5 0.958521C6.15685 0.958521 7.5 2.30167 7.5 3.95852Z" v-bind:fill="svgcolor"/>
<path d="M18.5 3.95852C18.5 5.61538 17.1569 6.95852 15.5 6.95852C13.8431 6.95852 12.5 5.61538 12.5 3.95852C12.5 2.30167 13.8431 0.958521 15.5 0.958521C17.1569 0.958521 18.5 2.30167 18.5 3.95852Z" v-bind:fill="svgcolor"/>
<path d="M4.5 13L4.5 13.5H5L15 13.5H15.5V13C15.5 10.4164 12.9277 8.5 10 8.5C7.07232 8.5 4.5 10.4164 4.5 13Z" v-bind:fill="svgcolor" stroke="white"/>
<path d="M10 8.50002C11.933 8.50002 13.5 6.93302 13.5 5.00002C13.5 3.06703 11.933 1.50002 10 1.50002C8.067 1.50002 6.5 3.06703 6.5 5.00002C6.5 6.93302 8.067 8.50002 10 8.50002Z" v-bind:fill="svgcolor" stroke="white"/>
</svg>
