<svg width="204" height="204" viewBox="0 0 204 204" fill="none" xmlns="http://www.w3.org/2000/svg">
<g filter="url(#filter0_d)">
<path d="M12 4H192V174C192 179.523 187.523 184 182 184H22C16.4772 184 12 179.523 12 174V4Z" fill="white"/>
</g>
<text fill="black" xml:space="preserve" style="white-space: pre" font-family="Roboto Condensed" font-size="28" font-style="italic" letter-spacing="0em"><tspan x="15" y="70.5703">TaskNameLong</tspan><tspan x="15" y="94.5703">Name</tspan></text>
<rect x="14.5" y="6.5" width="175" height="27" fill="white" stroke="#E7CB00" stroke-width="5"/>
<text fill="black" xml:space="preserve" style="white-space: pre" font-family="Oswald" font-size="14" font-weight="500" letter-spacing="0em"><tspan x="21" y="26.328">#TID</tspan></text>
<rect x="129.5" y="166.5" width="9" height="9" rx="0.5" stroke="#E7CB00"/>
<rect x="119.5" y="166.5" width="9" height="9" rx="0.5" stroke="#E7CB00"/>
<rect x="109.5" y="166.5" width="9" height="9" rx="0.5" stroke="#E7CB00"/>
<rect x="99.5" y="166.5" width="9" height="9" rx="0.5" stroke="#E7CB00"/>
<rect x="89.5" y="166.5" width="9" height="9" rx="0.5" stroke="#E7CB00"/>
<rect x="69.5" y="166.5" width="9" height="9" rx="0.5" stroke="#E7CB00"/>
<rect x="79.5" y="166.5" width="9" height="9" rx="0.5" stroke="#E7CB00"/>
<rect x="18" y="163.062" width="30" height="16" rx="1" fill="white" stroke="#E7CB00" stroke-width="2"/>
<path d="M32 164.75L26 170.75L32 176.75" stroke="#808080" stroke-width="4" stroke-linecap="round" stroke-linejoin="round"/>
<path d="M40 164.75L34 170.75L40 176.75" stroke="#808080" stroke-width="4" stroke-linecap="round" stroke-linejoin="round"/>
<text fill="black" xml:space="preserve" style="white-space: pre" font-family="Oswald" font-size="24" font-weight="500" letter-spacing="0em"><tspan x="92.3984" y="29.873">DR</tspan></text>
<rect x="77" y="13" width="5" height="4" fill="black"/>
<rect x="77" y="19" width="5" height="4" fill="black"/>
<rect x="71" y="13" width="5" height="4" fill="black"/>
<rect x="71" y="19" width="5" height="4" fill="black"/>
<rect x="83" y="13" width="5" height="4" fill="black"/>
<path fill-rule="evenodd" clip-rule="evenodd" d="M87 26C89.2091 26 91 24.2091 91 22C91 19.7909 89.2091 18 87 18C84.7909 18 83 19.7909 83 22C83 24.2091 84.7909 26 87 26ZM86.5 18.6667V21.7929L84.6464 23.6464L85.3536 24.3536L87.3536 22.3536L87.5 22.2071V22V18.6667H86.5Z" fill="black"/>
<text fill="black" xml:space="preserve" style="white-space: pre" font-family="Oswald" font-size="24" font-weight="500" letter-spacing="0em"><tspan x="150.586" y="29.873">MN</tspan></text>
<path d="M143 21C140.239 21 138 23.2386 138 26L148 26C148 23.2386 145.761 21 143 21Z" fill="black"/>
<ellipse cx="143" cy="16.5" rx="3" ry="3.5" fill="black"/>
<defs>
<filter id="filter0_d" x="0" y="0" width="204" height="204" filterUnits="userSpaceOnUse" color-interpolation-filters="sRGB">
<feFlood flood-opacity="0" result="BackgroundImageFix"/>
<feColorMatrix in="SourceAlpha" type="matrix" values="0 0 0 0 0 0 0 0 0 0 0 0 0 0 0 0 0 0 127 0"/>
<feOffset dy="8"/>
<feGaussianBlur stdDeviation="6"/>
<feColorMatrix type="matrix" values="0 0 0 0 0 0 0 0 0 0 0 0 0 0 0 0 0 0 0.5 0"/>
<feBlend mode="normal" in2="BackgroundImageFix" result="effect1_dropShadow"/>
<feBlend mode="normal" in="SourceGraphic" in2="effect1_dropShadow" result="shape"/>
</filter>
</defs>
</svg>
