<svg width="204" height="204" viewBox="0 0 204 204" fill="none" xmlns="http://www.w3.org/2000/svg">
<g filter="url(#filter0_d)">
<path d="M12 4H192V174C192 179.523 187.523 184 182 184H22C16.4772 184 12 179.523 12 174V4Z" fill="white"/>
</g>
<text fill="black" xml:space="preserve" style="white-space: pre" font-family="Roboto Condensed" font-size="36" font-style="italic" font-weight="300" letter-spacing="0em"><tspan x="15" y="77.3047">TaskNameL</tspan><tspan x="15" y="109.305">ongName</tspan></text>
<rect x="14.5" y="6.5" width="175" height="27" fill="white" stroke="#E7CB00" stroke-width="5"/>
<text fill="black" xml:space="preserve" style="white-space: pre" font-family="Oswald" font-size="24" font-weight="500" letter-spacing="0em"><tspan x="19" y="29.873">TID</tspan></text>
<rect x="145.5" y="167.5" width="9" height="9" rx="4.5" stroke="black" stroke-opacity="0.5"/>
<rect x="135" y="167" width="10" height="10" rx="5" fill="black"/>
<rect x="125" y="167" width="10" height="10" rx="5" fill="black"/>
<rect x="115" y="167" width="10" height="10" rx="5" fill="black"/>
<rect x="105" y="167" width="10" height="10" rx="5" fill="black"/>
<rect x="85" y="167" width="10" height="10" rx="5" fill="black"/>
<rect x="95" y="167" width="10" height="10" rx="5" fill="black"/>
<g filter="url(#filter1_d)">
<circle cx="171" cy="164" r="16" fill="white"/>
<circle cx="171" cy="164" r="15" stroke="black" stroke-width="2"/>
</g>
<path d="M18 149H48V177C48 178.105 47.1046 179 46 179H20C18.8954 179 18 178.105 18 177V149Z" stroke="url(#paint0_linear)" stroke-width="2"/>
<rect x="18" y="149" width="30" height="4" fill="white" stroke="#E7CB00" stroke-width="2"/>
<g filter="url(#filter2_d)">
<path d="M35 159L28 166L35 173" stroke="black" stroke-width="4" stroke-linecap="round" stroke-linejoin="round"/>
</g>
<text fill="black" xml:space="preserve" style="white-space: pre" font-family="Oswald" font-size="14" font-weight="500" letter-spacing="0em"><tspan x="92.7412" y="25.7593">DR</tspan></text>
<text fill="black" xml:space="preserve" style="white-space: pre" font-family="Oswald" font-size="14" font-weight="500" letter-spacing="0em"><tspan x="162.842" y="25.7593">MN</tspan></text>
<defs>
<filter id="filter0_d" x="0" y="0" width="204" height="204" filterUnits="userSpaceOnUse" color-interpolation-filters="sRGB">
<feFlood flood-opacity="0" result="BackgroundImageFix"/>
<feColorMatrix in="SourceAlpha" type="matrix" values="0 0 0 0 0 0 0 0 0 0 0 0 0 0 0 0 0 0 127 0"/>
<feOffset dy="8"/>
<feGaussianBlur stdDeviation="6"/>
<feColorMatrix type="matrix" values="0 0 0 0 0 0 0 0 0 0 0 0 0 0 0 0 0 0 0.5 0"/>
<feBlend mode="normal" in2="BackgroundImageFix" result="effect1_dropShadow"/>
<feBlend mode="normal" in="SourceGraphic" in2="effect1_dropShadow" result="shape"/>
</filter>
<filter id="filter1_d" x="153" y="148" width="40" height="40" filterUnits="userSpaceOnUse" color-interpolation-filters="sRGB">
<feFlood flood-opacity="0" result="BackgroundImageFix"/>
<feColorMatrix in="SourceAlpha" type="matrix" values="0 0 0 0 0 0 0 0 0 0 0 0 0 0 0 0 0 0 127 0"/>
<feOffset dx="2" dy="4"/>
<feGaussianBlur stdDeviation="2"/>
<feColorMatrix type="matrix" values="0 0 0 0 0 0 0 0 0 0 0 0 0 0 0 0 0 0 0.5 0"/>
<feBlend mode="normal" in2="BackgroundImageFix" result="effect1_dropShadow"/>
<feBlend mode="normal" in="SourceGraphic" in2="effect1_dropShadow" result="shape"/>
</filter>
<filter id="filter2_d" x="24" y="157" width="19" height="26" filterUnits="userSpaceOnUse" color-interpolation-filters="sRGB">
<feFlood flood-opacity="0" result="BackgroundImageFix"/>
<feColorMatrix in="SourceAlpha" type="matrix" values="0 0 0 0 0 0 0 0 0 0 0 0 0 0 0 0 0 0 127 0"/>
<feOffset dx="2" dy="4"/>
<feGaussianBlur stdDeviation="2"/>
<feColorMatrix type="matrix" values="0 0 0 0 0 0 0 0 0 0 0 0 0 0 0 0 0 0 0.5 0"/>
<feBlend mode="normal" in2="BackgroundImageFix" result="effect1_dropShadow"/>
<feBlend mode="normal" in="SourceGraphic" in2="effect1_dropShadow" result="shape"/>
</filter>
<linearGradient id="paint0_linear" x1="33" y1="148" x2="33" y2="180" gradientUnits="userSpaceOnUse">
<stop stop-color="#D9D9D9"/>
<stop offset="1" stop-color="#F7F7F7"/>
</linearGradient>
</defs>
</svg>
