<svg width="188" height="188" viewBox="0 0 188 188" fill= " none;" xmlns="http://www.w3.org/2000/svg">
<g filter="url(#filter0_d_taskstatus)">
<path d="M2 0H182V175C182 177.761 179.761 180 177 180H7C4.23858 180 2 177.761 2 175V0Z" fill="white"/>
</g>
<text fill="black" v-bind:fill-opacity="[!ready ? 1 : 0.5]" xml:space="preserve" style="white-space: pre" font-family="Oswald" font-size="14" font-weight="500" letter-spacing="0em"><tspan x="81.998" y="166.328">Not Ready</tspan></text>
<g filter="url(#filter1_d_taskstatus)">
<circle cx="160" cy="160" r="16" fill="white" v-bind:fill-opacity="[!ready ? 1 : 0.5]"/>
<circle cx="160" cy="160" r="15" fill="white" stroke="black" stroke-width="2" v-bind:fill-opacity="[!ready ? 1 : 0.5]"/>
</g>
<text fill="black" v-bind:stroke-opacity="[!ready ? 1 : 0.5]" v-bind:fill-opacity="[ready && paused ? 1 : 0.5]" xml:space="preserve" style="white-space: pre" font-family="Oswald" font-size="14" font-weight="500" letter-spacing="0em"><tspan x="98.2949" y="129.328">Paused</tspan></text>
<g filter="url(#filter2_d_taskstatus)">
<circle cx="160" cy="123" r="16" fill="black" v-bind:fill-opacity="[ready && paused ? 1 : 0.5]"/>
</g>
<rect x="154" y="114" width="4" height="17" fill="white"/>
<rect x="163" y="114" width="4" height="17" fill="white"/>
<text fill="black" v-bind:fill-opacity="[ready && !paused && done ? 1 : 0.5]" xml:space="preserve" style="white-space: pre" font-family="Oswald" font-size="14" font-weight="500" letter-spacing="0em"><tspan x="109.957" y="95.328">Done</tspan></text>
<g filter="url(#filter3_d_taskstatus)">
<circle cx="160" cy="89" r="16" fill="black" v-bind:fill-opacity="[ready && !paused && done ? 1 : 0.5]"/>
</g>
<path d="M152 89.7179L158.857 98C158.982 92.855 164.31 82.6007 167 81" stroke="white" stroke-width="5" stroke-linejoin="round"/>
<text fill="black" v-bind:fill-opacity="[ready && !paused && !done ? 1 : 0.5]" xml:space="preserve" style="white-space: pre" font-family="Oswald" font-size="14" font-weight="500" letter-spacing="0em"><tspan x="104.051" y="61.328">Ready</tspan></text>
<g filter="url(#filter4_d_taskstatus)">
<circle cx="160" cy="55" r="16" fill="black" v-bind:fill-opacity="[ready && !paused && !done ? 1 : 0.5]"/>
</g>
<text fill="white" xml:space="preserve" style="white-space: pre" font-family="Oswald" font-size="14" font-weight="500" letter-spacing="0em"><tspan x="151.435" y="61.328">7/7</tspan></text>

<rect id="spaceTap" v-tap='handleConstraintChange' x="10" y="159" height="10" width="60" fill="white"/>
<rect style="pointer-events : none;" v-if="space" x="10" y="159" width="10" height="10" rx="5" fill="black"/>
<rect style="pointer-events : none;" v-else="space" x="10.5" y="159.5" width="9" height="9" rx="4.5" fill="white" stroke="black" stroke-opacity="0.5"/>
<text style="pointer-events : none; white-space: pre;" fill="black" fill-opacity="0.5" xml:space="preserve" font-family="Roboto" font-size="10" letter-spacing="0em"><tspan x="24" y="167.418">Space</tspan></text>

<rect id="safetyTap" v-tap="handleConstraintChange" x="10" y="139" height="10" width="60" fill="white"/>
<rect style="pointer-events : none;" v-if="safety" x="10" y="139" width="10" height="10" rx="5" fill="black"/>
<rect style="pointer-events : none;" v-else="safety" x="10.5" y="139.5" width="9" height="9" rx="4.5" fill="white" stroke="black" stroke-opacity="0.5"/>
<text style="pointer-events : none; white-space: pre;" fill="black" fill-opacity="0.5" xml:space="preserve" font-family="Roboto" font-size="10" letter-spacing="0em"><tspan x="24" y="147.418">Safety</tspan></text>

<rect id="equipementTap" v-tap="handleConstraintChange" x="10" y="119" height="10" width="60" fill="white"/>
<rect style="pointer-events : none;" v-if="equipement" x="10" y="119" width="10" height="10" rx="5" fill="black"/>
<rect style="pointer-events : none;" v-else="equipement" x="10.5" y="119.5" width="9" height="9" rx="4.5" fill="white" stroke="black" stroke-opacity="0.5"/>
<text style="pointer-events : none; white-space: pre;" fill="black" fill-opacity="0.5" xml:space="preserve" font-family="Roboto" font-size="10" letter-spacing="0em"><tspan x="24" y="127.418">Equipment</tspan></text>

<rect id="manpowerTap" v-tap="handleConstraintChange" x="10" y="99" height="10" width="60" fill="white"/>
<rect style="pointer-events : none;" v-if="manpower" x="10" y="99" width="10" height="10" rx="5" fill="black"/>
<rect style="pointer-events : none;" v-else="manpower" x="10.5" y="99.5" width="9" height="9" rx="4.5" fill="white" stroke="black" stroke-opacity="0.5"/>
<text style="pointer-events : none; white-space: pre;" fill="black" fill-opacity="0.5" xml:space="preserve" font-family="Roboto" font-size="10" letter-spacing="0em"><tspan x="24" y="107.418">Manpower</tspan></text>

<rect id="materialsTap" v-tap="handleConstraintChange" x="10" y="79" height="10" width="60" fill="white"/>
<rect style="pointer-events : none;" v-if="materials" x="10" y="79" width="10" height="10" rx="5" fill="black"/>
<rect style="pointer-events : none;" v-else="materials" x="10.5" y="79.5" width="9" height="9" rx="4.5" fill="white" stroke="black" stroke-opacity="0.5"/>
<text style="pointer-events : none; white-space: pre;" fill="black" fill-opacity="0.5" xml:space="preserve" font-family="Roboto" font-size="10" letter-spacing="0em"><tspan x="24" y="87.418">Materials</tspan></text>

<rect id="informationTap" v-tap="handleConstraintChange" x="10" y="59" height="10" width="60" fill="white"/>
<rect style="pointer-events : none;" v-if="information" x="10" y="59" width="10" height="10" rx="5" fill="black"/>
<rect style="pointer-events : none;" v-else="information" x="10.5" y="59.5" width="9" height="9" rx="4.5" fill="white" stroke="black" stroke-opacity="0.5"/>
<text style="pointer-events : none; white-space: pre;" fill="black" fill-opacity="0.5" xml:space="preserve" font-family="Roboto" font-size="10" letter-spacing="0em"><tspan x="24" y="67.418">Information</tspan></text>

<rect id="constraintTap" v-tap="handleConstraintChange" x="10" y="39" height="10" width="60" fill="white"/>
<rect style="pointer-events : none;" v-if="constraint" x="10" y="39" width="10" height="10" rx="5" fill="black"/>
<rect style="pointer-events : none;" v-else="constraint" x="10.5" y="39.5" width="9" height="9" rx="4.5" fill="white" stroke="black" stroke-opacity="0.5"/>
<text style="pointer-events : none; white-space: pre;" fill="black" fill-opacity="0.5" xml:space="preserve" font-family="Roboto" font-size="10" letter-spacing="0em"><tspan x="24" y="47.418">Constraint</tspan></text>

<rect v-if="ready" x="4.5" y="2.5" width="175" height="27" v-bind:fill="svgcolor" v-bind:stroke="svgcolor" stroke-width="5"/>
<rect v-else="ready" x="4.5" y="2.5" width="175" height="27" fill="white" v-bind:stroke="svgcolor" stroke-width="5"/>

<text fill="black" xml:space="preserve" style="white-space: pre" font-family="Oswald" font-size="24" font-weight="500" letter-spacing="0em"><tspan x="9" y="26.848">{{tid}}</tspan></text>
</svg>
