<svg width="188" height="188" viewBox="0 0 188 188" fill="none" xmlns="http://www.w3.org/2000/svg">
<g filter="url(#filter0_d)">
<path d="M2 0H182V175C182 177.761 179.761 180 177 180H7C4.23858 180 2 177.761 2 175V0Z" fill="white"/>
</g>
<path d="M82.852 154.66H84.294L87.052 161.128V154.66H88.76V166H87.388L84.616 159.224V166H82.852V154.66ZM92.805 166.126C91.937 166.126 91.2883 165.888 90.859 165.412C90.4296 164.927 90.215 164.227 90.215 163.312V160.596C90.215 159.681 90.4296 158.986 90.859 158.51C91.2883 158.025 91.937 157.782 92.805 157.782C93.673 157.782 94.3216 158.025 94.751 158.51C95.1896 158.986 95.409 159.681 95.409 160.596V163.312C95.409 164.227 95.1896 164.927 94.751 165.412C94.3216 165.888 93.673 166.126 92.805 166.126ZM92.819 164.81C93.1083 164.81 93.2996 164.698 93.393 164.474C93.4863 164.241 93.533 163.9 93.533 163.452V160.47C93.533 160.022 93.4863 159.681 93.393 159.448C93.2996 159.215 93.1083 159.098 92.819 159.098C92.5203 159.098 92.3243 159.215 92.231 159.448C92.1376 159.681 92.091 160.022 92.091 160.47V163.452C92.091 163.9 92.1376 164.241 92.231 164.474C92.3243 164.698 92.5203 164.81 92.819 164.81ZM99.064 166.098C98.3267 166.098 97.804 165.921 97.496 165.566C97.1974 165.211 97.048 164.684 97.048 163.984V159.154H96.236V157.908H97.048V155.486H98.966V157.908H100.184V159.154H98.966V163.816C98.966 164.087 99.022 164.283 99.134 164.404C99.2554 164.525 99.442 164.586 99.694 164.586C99.9274 164.586 100.123 164.567 100.282 164.53V166C99.9087 166.065 99.5027 166.098 99.064 166.098ZM104.905 154.66H107.635C108.829 154.66 109.721 154.889 110.309 155.346C110.897 155.794 111.191 156.569 111.191 157.67C111.191 158.389 111.083 158.977 110.869 159.434C110.663 159.882 110.304 160.209 109.791 160.414L111.373 166H109.301L107.943 160.806H106.963V166H104.905V154.66ZM107.621 159.518C108.209 159.518 108.624 159.383 108.867 159.112C109.119 158.841 109.245 158.398 109.245 157.782C109.245 157.185 109.133 156.751 108.909 156.48C108.694 156.209 108.302 156.074 107.733 156.074H106.963V159.518H107.621ZM115.076 166.126C114.18 166.126 113.522 165.879 113.102 165.384C112.682 164.88 112.472 164.138 112.472 163.158V160.75C112.472 159.761 112.682 159.019 113.102 158.524C113.532 158.029 114.19 157.782 115.076 157.782C115.991 157.782 116.635 158.039 117.008 158.552C117.391 159.065 117.582 159.84 117.582 160.876V162.038H114.362V163.634C114.362 164.026 114.418 164.311 114.53 164.488C114.652 164.665 114.838 164.754 115.09 164.754C115.333 164.754 115.506 164.67 115.608 164.502C115.72 164.325 115.776 164.059 115.776 163.704V163.018H117.568V163.578C117.568 164.409 117.358 165.043 116.938 165.482C116.518 165.911 115.898 166.126 115.076 166.126ZM115.776 161.1V160.33C115.776 159.91 115.725 159.611 115.622 159.434C115.52 159.247 115.338 159.154 115.076 159.154C114.806 159.154 114.619 159.252 114.516 159.448C114.414 159.644 114.362 160.008 114.362 160.54V161.1H115.776ZM120.442 166.126C120.097 166.126 119.789 166.033 119.518 165.846C119.257 165.659 119.052 165.421 118.902 165.132C118.762 164.833 118.692 164.525 118.692 164.208C118.692 163.583 118.837 163.069 119.126 162.668C119.425 162.257 119.789 161.94 120.218 161.716C120.657 161.492 121.236 161.245 121.954 160.974V160.274C121.954 159.901 121.908 159.63 121.814 159.462C121.73 159.285 121.562 159.196 121.31 159.196C120.881 159.196 120.657 159.495 120.638 160.092L120.61 160.582L118.804 160.512C118.832 159.579 119.061 158.893 119.49 158.454C119.929 158.006 120.587 157.782 121.464 157.782C122.258 157.782 122.846 158.001 123.228 158.44C123.611 158.869 123.802 159.481 123.802 160.274V164.012C123.802 164.591 123.849 165.253 123.942 166H122.234C122.141 165.496 122.076 165.109 122.038 164.838C121.926 165.202 121.735 165.51 121.464 165.762C121.203 166.005 120.862 166.126 120.442 166.126ZM121.142 164.712C121.301 164.712 121.45 164.656 121.59 164.544C121.74 164.432 121.861 164.311 121.954 164.18V161.912C121.46 162.201 121.091 162.481 120.848 162.752C120.606 163.013 120.484 163.345 120.484 163.746C120.484 164.045 120.54 164.283 120.652 164.46C120.774 164.628 120.937 164.712 121.142 164.712ZM127.025 166.126C126.371 166.126 125.881 165.897 125.555 165.44C125.237 164.973 125.079 164.241 125.079 163.242V160.764C125.079 159.849 125.228 159.126 125.527 158.594C125.835 158.053 126.329 157.782 127.011 157.782C127.533 157.782 128.019 157.997 128.467 158.426V154.66H130.385V166H128.467V165.426C128.019 165.893 127.538 166.126 127.025 166.126ZM127.711 164.81C127.953 164.81 128.205 164.721 128.467 164.544V159.35C128.224 159.173 127.972 159.084 127.711 159.084C127.225 159.084 126.983 159.509 126.983 160.358V163.382C126.983 163.839 127.034 164.194 127.137 164.446C127.239 164.689 127.431 164.81 127.711 164.81ZM131.891 166.826C132.395 166.826 132.75 166.779 132.955 166.686C133.17 166.602 133.277 166.434 133.277 166.182C133.277 166.014 133.179 165.538 132.983 164.754L131.205 157.908H133.053L134.103 163.256L135.013 157.908H136.847L134.957 166.322C134.799 167.003 134.495 167.484 134.047 167.764C133.609 168.053 133.011 168.198 132.255 168.198H131.891V166.826Z" fill="black" fill-opacity="0.5"/>
<g filter="url(#filter1_d)">
<circle cx="160" cy="160" r="16" fill="white"/>
<circle cx="160" cy="160" r="15" stroke="black" stroke-opacity="0.5" stroke-width="2"/>
</g>
<path d="M99.1489 117.66H102.481C104.413 117.66 105.379 118.733 105.379 120.88C105.379 122.933 104.366 123.96 102.341 123.96H101.207V129H99.1489V117.66ZM102.005 122.504C102.565 122.504 102.943 122.387 103.139 122.154C103.335 121.911 103.433 121.482 103.433 120.866C103.433 120.418 103.4 120.077 103.335 119.844C103.27 119.601 103.134 119.419 102.929 119.298C102.733 119.177 102.425 119.116 102.005 119.116H101.207V122.504H102.005ZM107.864 129.126C107.519 129.126 107.211 129.033 106.94 128.846C106.679 128.659 106.474 128.421 106.324 128.132C106.184 127.833 106.114 127.525 106.114 127.208C106.114 126.583 106.259 126.069 106.548 125.668C106.847 125.257 107.211 124.94 107.64 124.716C108.079 124.492 108.658 124.245 109.376 123.974V123.274C109.376 122.901 109.33 122.63 109.236 122.462C109.152 122.285 108.984 122.196 108.732 122.196C108.303 122.196 108.079 122.495 108.06 123.092L108.032 123.582L106.226 123.512C106.254 122.579 106.483 121.893 106.912 121.454C107.351 121.006 108.009 120.782 108.886 120.782C109.68 120.782 110.268 121.001 110.65 121.44C111.033 121.869 111.224 122.481 111.224 123.274V127.012C111.224 127.591 111.271 128.253 111.364 129H109.656C109.563 128.496 109.498 128.109 109.46 127.838C109.348 128.202 109.157 128.51 108.886 128.762C108.625 129.005 108.284 129.126 107.864 129.126ZM108.564 127.712C108.723 127.712 108.872 127.656 109.012 127.544C109.162 127.432 109.283 127.311 109.376 127.18V124.912C108.882 125.201 108.513 125.481 108.27 125.752C108.028 126.013 107.906 126.345 107.906 126.746C107.906 127.045 107.962 127.283 108.074 127.46C108.196 127.628 108.359 127.712 108.564 127.712ZM113.928 129.126C113.471 129.126 113.13 128.958 112.906 128.622C112.682 128.286 112.57 127.861 112.57 127.348V120.908H114.46V126.998C114.46 127.25 114.502 127.441 114.586 127.572C114.67 127.703 114.815 127.768 115.02 127.768C115.235 127.768 115.52 127.642 115.874 127.39V120.908H117.778V129H115.874V128.23C115.249 128.827 114.6 129.126 113.928 129.126ZM121.442 129.126C120.76 129.126 120.2 128.944 119.762 128.58C119.323 128.216 119.01 127.684 118.824 126.984L120.238 126.438C120.452 127.343 120.844 127.796 121.414 127.796C121.628 127.796 121.792 127.74 121.904 127.628C122.025 127.516 122.086 127.362 122.086 127.166C122.086 126.951 122.02 126.755 121.89 126.578C121.759 126.391 121.526 126.158 121.19 125.878L120.224 125.038C119.813 124.702 119.51 124.375 119.314 124.058C119.118 123.741 119.02 123.353 119.02 122.896C119.02 122.261 119.234 121.753 119.664 121.37C120.102 120.978 120.653 120.782 121.316 120.782C121.95 120.782 122.468 120.973 122.87 121.356C123.271 121.729 123.532 122.238 123.654 122.882L122.408 123.414C122.333 123.041 122.207 122.737 122.03 122.504C121.862 122.261 121.642 122.14 121.372 122.14C121.176 122.14 121.017 122.201 120.896 122.322C120.784 122.443 120.728 122.597 120.728 122.784C120.728 122.933 120.793 123.092 120.924 123.26C121.054 123.428 121.25 123.624 121.512 123.848L122.492 124.744C122.912 125.108 123.234 125.458 123.458 125.794C123.691 126.121 123.808 126.517 123.808 126.984C123.808 127.665 123.584 128.193 123.136 128.566C122.697 128.939 122.132 129.126 121.442 129.126ZM127.299 129.126C126.403 129.126 125.745 128.879 125.325 128.384C124.905 127.88 124.695 127.138 124.695 126.158V123.75C124.695 122.761 124.905 122.019 125.325 121.524C125.754 121.029 126.412 120.782 127.299 120.782C128.214 120.782 128.858 121.039 129.231 121.552C129.614 122.065 129.805 122.84 129.805 123.876V125.038H126.585V126.634C126.585 127.026 126.641 127.311 126.753 127.488C126.874 127.665 127.061 127.754 127.313 127.754C127.556 127.754 127.728 127.67 127.831 127.502C127.943 127.325 127.999 127.059 127.999 126.704V126.018H129.791V126.578C129.791 127.409 129.581 128.043 129.161 128.482C128.741 128.911 128.12 129.126 127.299 129.126ZM127.999 124.1V123.33C127.999 122.91 127.948 122.611 127.845 122.434C127.742 122.247 127.56 122.154 127.299 122.154C127.028 122.154 126.842 122.252 126.739 122.448C126.636 122.644 126.585 123.008 126.585 123.54V124.1H127.999ZM132.917 129.126C132.264 129.126 131.774 128.897 131.447 128.44C131.13 127.973 130.971 127.241 130.971 126.242V123.764C130.971 122.849 131.12 122.126 131.419 121.594C131.727 121.053 132.222 120.782 132.903 120.782C133.426 120.782 133.911 120.997 134.359 121.426V117.66H136.277V129H134.359V128.426C133.911 128.893 133.43 129.126 132.917 129.126ZM133.603 127.81C133.846 127.81 134.098 127.721 134.359 127.544V122.35C134.116 122.173 133.864 122.084 133.603 122.084C133.118 122.084 132.875 122.509 132.875 123.358V126.382C132.875 126.839 132.926 127.194 133.029 127.446C133.132 127.689 133.323 127.81 133.603 127.81Z" fill="black" fill-opacity="0.5"/>
<g filter="url(#filter2_d)">
<circle cx="160" cy="123" r="16" fill="black" fill-opacity="0.5"/>
</g>
<rect x="154" y="114" width="4" height="17" fill="white"/>
<rect x="163" y="114" width="4" height="17" fill="white"/>
<path d="M110.811 83.66H113.485C114.4 83.66 115.118 83.786 115.641 84.038C116.164 84.2807 116.532 84.6587 116.747 85.172C116.971 85.676 117.083 86.348 117.083 87.188V91.318C117.083 92.1767 116.971 92.872 116.747 93.404C116.532 93.936 116.168 94.3373 115.655 94.608C115.142 94.8693 114.446 95 113.569 95H110.811V83.66ZM113.513 93.558C113.97 93.558 114.302 93.4787 114.507 93.32C114.712 93.1613 114.843 92.942 114.899 92.662C114.955 92.3727 114.983 91.948 114.983 91.388V87.048C114.983 86.544 114.95 86.1613 114.885 85.9C114.82 85.6387 114.68 85.4473 114.465 85.326C114.26 85.1953 113.933 85.13 113.485 85.13H112.869V93.558H113.513ZM120.928 95.126C120.06 95.126 119.411 94.888 118.982 94.412C118.553 93.9267 118.338 93.2267 118.338 92.312V89.596C118.338 88.6813 118.553 87.986 118.982 87.51C119.411 87.0247 120.06 86.782 120.928 86.782C121.796 86.782 122.445 87.0247 122.874 87.51C123.313 87.986 123.532 88.6813 123.532 89.596V92.312C123.532 93.2267 123.313 93.9267 122.874 94.412C122.445 94.888 121.796 95.126 120.928 95.126ZM120.942 93.81C121.231 93.81 121.423 93.698 121.516 93.474C121.609 93.2407 121.656 92.9 121.656 92.452V89.47C121.656 89.022 121.609 88.6813 121.516 88.448C121.423 88.2147 121.231 88.098 120.942 88.098C120.643 88.098 120.447 88.2147 120.354 88.448C120.261 88.6813 120.214 89.022 120.214 89.47V92.452C120.214 92.9 120.261 93.2407 120.354 93.474C120.447 93.698 120.643 93.81 120.942 93.81ZM124.849 86.908H126.753V87.706C127.397 87.09 128.05 86.782 128.713 86.782C129.17 86.782 129.511 86.95 129.735 87.286C129.968 87.622 130.085 88.0467 130.085 88.56V95H128.181V88.938C128.181 88.6767 128.139 88.4853 128.055 88.364C127.98 88.2427 127.84 88.182 127.635 88.182C127.411 88.182 127.117 88.3127 126.753 88.574V95H124.849V86.908ZM133.93 95.126C133.034 95.126 132.376 94.8787 131.956 94.384C131.536 93.88 131.326 93.138 131.326 92.158V89.75C131.326 88.7607 131.536 88.0187 131.956 87.524C132.385 87.0293 133.043 86.782 133.93 86.782C134.845 86.782 135.489 87.0387 135.862 87.552C136.245 88.0653 136.436 88.84 136.436 89.876V91.038H133.216V92.634C133.216 93.026 133.272 93.3107 133.384 93.488C133.505 93.6653 133.692 93.754 133.944 93.754C134.187 93.754 134.359 93.67 134.462 93.502C134.574 93.3247 134.63 93.0587 134.63 92.704V92.018H136.422V92.578C136.422 93.4087 136.212 94.0433 135.792 94.482C135.372 94.9113 134.751 95.126 133.93 95.126ZM134.63 90.1V89.33C134.63 88.91 134.579 88.6113 134.476 88.434C134.373 88.2473 134.191 88.154 133.93 88.154C133.659 88.154 133.473 88.252 133.37 88.448C133.267 88.644 133.216 89.008 133.216 89.54V90.1H134.63Z" fill="black" fill-opacity="0.5"/>
<g filter="url(#filter3_d)">
<circle cx="160" cy="89" r="16" fill="black" fill-opacity="0.5"/>
</g>
<path d="M152 89.7179L158.857 98C158.982 92.855 164.31 82.6007 167 81" stroke="white" stroke-width="5" stroke-linejoin="round"/>
<path d="M104.905 49.66H107.635C108.829 49.66 109.721 49.8887 110.309 50.346C110.897 50.794 111.191 51.5687 111.191 52.67C111.191 53.3887 111.083 53.9767 110.869 54.434C110.663 54.882 110.304 55.2087 109.791 55.414L111.373 61H109.301L107.943 55.806H106.963V61H104.905V49.66ZM107.621 54.518C108.209 54.518 108.624 54.3827 108.867 54.112C109.119 53.8413 109.245 53.398 109.245 52.782C109.245 52.1847 109.133 51.7507 108.909 51.48C108.694 51.2093 108.302 51.074 107.733 51.074H106.963V54.518H107.621ZM115.076 61.126C114.18 61.126 113.522 60.8787 113.102 60.384C112.682 59.88 112.472 59.138 112.472 58.158V55.75C112.472 54.7607 112.682 54.0187 113.102 53.524C113.532 53.0293 114.19 52.782 115.076 52.782C115.991 52.782 116.635 53.0387 117.008 53.552C117.391 54.0653 117.582 54.84 117.582 55.876V57.038H114.362V58.634C114.362 59.026 114.418 59.3107 114.53 59.488C114.652 59.6653 114.838 59.754 115.09 59.754C115.333 59.754 115.506 59.67 115.608 59.502C115.72 59.3247 115.776 59.0587 115.776 58.704V58.018H117.568V58.578C117.568 59.4087 117.358 60.0433 116.938 60.482C116.518 60.9113 115.898 61.126 115.076 61.126ZM115.776 56.1V55.33C115.776 54.91 115.725 54.6113 115.622 54.434C115.52 54.2473 115.338 54.154 115.076 54.154C114.806 54.154 114.619 54.252 114.516 54.448C114.414 54.644 114.362 55.008 114.362 55.54V56.1H115.776ZM120.442 61.126C120.097 61.126 119.789 61.0327 119.518 60.846C119.257 60.6593 119.052 60.4213 118.902 60.132C118.762 59.8333 118.692 59.5253 118.692 59.208C118.692 58.5827 118.837 58.0693 119.126 57.668C119.425 57.2573 119.789 56.94 120.218 56.716C120.657 56.492 121.236 56.2447 121.954 55.974V55.274C121.954 54.9007 121.908 54.63 121.814 54.462C121.73 54.2847 121.562 54.196 121.31 54.196C120.881 54.196 120.657 54.4947 120.638 55.092L120.61 55.582L118.804 55.512C118.832 54.5787 119.061 53.8927 119.49 53.454C119.929 53.006 120.587 52.782 121.464 52.782C122.258 52.782 122.846 53.0013 123.228 53.44C123.611 53.8693 123.802 54.4807 123.802 55.274V59.012C123.802 59.5907 123.849 60.2533 123.942 61H122.234C122.141 60.496 122.076 60.1087 122.038 59.838C121.926 60.202 121.735 60.51 121.464 60.762C121.203 61.0047 120.862 61.126 120.442 61.126ZM121.142 59.712C121.301 59.712 121.45 59.656 121.59 59.544C121.74 59.432 121.861 59.3107 121.954 59.18V56.912C121.46 57.2013 121.091 57.4813 120.848 57.752C120.606 58.0133 120.484 58.3447 120.484 58.746C120.484 59.0447 120.54 59.2827 120.652 59.46C120.774 59.628 120.937 59.712 121.142 59.712ZM127.025 61.126C126.371 61.126 125.881 60.8973 125.555 60.44C125.237 59.9733 125.079 59.2407 125.079 58.242V55.764C125.079 54.8493 125.228 54.126 125.527 53.594C125.835 53.0527 126.329 52.782 127.011 52.782C127.533 52.782 128.019 52.9967 128.467 53.426V49.66H130.385V61H128.467V60.426C128.019 60.8927 127.538 61.126 127.025 61.126ZM127.711 59.81C127.953 59.81 128.205 59.7213 128.467 59.544V54.35C128.224 54.1727 127.972 54.084 127.711 54.084C127.225 54.084 126.983 54.5087 126.983 55.358V58.382C126.983 58.8393 127.034 59.194 127.137 59.446C127.239 59.6887 127.431 59.81 127.711 59.81ZM131.891 61.826C132.395 61.826 132.75 61.7793 132.955 61.686C133.17 61.602 133.277 61.434 133.277 61.182C133.277 61.014 133.179 60.538 132.983 59.754L131.205 52.908H133.053L134.103 58.256L135.013 52.908H136.847L134.957 61.322C134.799 62.0033 134.495 62.484 134.047 62.764C133.609 63.0533 133.011 63.198 132.255 63.198H131.891V61.826Z" fill="black"/>
<g filter="url(#filter4_d)">
<circle cx="160" cy="55" r="16" fill="black"/>
</g>
<path d="M154.795 51.144H151.729V49.66H156.699V50.836L154.403 61H152.541L154.795 51.144ZM160.998 49.66H162.258L158.982 61H157.722L160.998 49.66ZM166.142 51.144H163.076V49.66H168.046V50.836L165.75 61H163.888L166.142 51.144Z" fill="white"/>
<rect x="10" y="159" width="10" height="10" rx="5" fill="black"/>
<path d="M26.9199 163.831C26.1159 163.6 25.5299 163.317 25.1621 162.981C24.7975 162.643 24.6152 162.226 24.6152 161.731C24.6152 161.172 24.8382 160.709 25.2842 160.345C25.7334 159.977 26.3161 159.793 27.0322 159.793C27.5205 159.793 27.9551 159.887 28.3359 160.076C28.7201 160.265 29.0163 160.525 29.2246 160.857C29.4362 161.189 29.542 161.552 29.542 161.946H28.5996C28.5996 161.517 28.4629 161.18 28.1895 160.936C27.916 160.688 27.5303 160.564 27.0322 160.564C26.57 160.564 26.2087 160.667 25.9482 160.872C25.6911 161.074 25.5625 161.355 25.5625 161.717C25.5625 162.007 25.6846 162.252 25.9287 162.454C26.1761 162.653 26.5944 162.835 27.1836 163.001C27.776 163.167 28.2383 163.351 28.5703 163.553C28.9056 163.751 29.153 163.984 29.3125 164.251C29.4753 164.518 29.5566 164.832 29.5566 165.193C29.5566 165.77 29.332 166.232 28.8828 166.58C28.4336 166.925 27.833 167.098 27.0811 167.098C26.5928 167.098 26.137 167.005 25.7139 166.819C25.2907 166.631 24.9635 166.373 24.7324 166.048C24.5046 165.722 24.3906 165.353 24.3906 164.939H25.333C25.333 165.369 25.4909 165.709 25.8066 165.96C26.1257 166.207 26.5505 166.331 27.0811 166.331C27.5758 166.331 27.9551 166.23 28.2188 166.028C28.4824 165.826 28.6143 165.551 28.6143 165.203C28.6143 164.855 28.4922 164.586 28.248 164.397C28.0039 164.205 27.5612 164.017 26.9199 163.831ZM35.084 164.417C35.084 165.221 34.9001 165.869 34.5322 166.36C34.1644 166.852 33.6663 167.098 33.0381 167.098C32.3968 167.098 31.8923 166.894 31.5244 166.487V169.031H30.6211V161.717H31.4463L31.4902 162.303C31.8581 161.847 32.3691 161.619 33.0234 161.619C33.6582 161.619 34.1595 161.858 34.5273 162.337C34.8984 162.815 35.084 163.481 35.084 164.334V164.417ZM34.1807 164.314C34.1807 163.719 34.0537 163.248 33.7998 162.903C33.5459 162.558 33.1976 162.386 32.7549 162.386C32.208 162.386 31.7979 162.628 31.5244 163.113V165.638C31.7946 166.119 32.208 166.36 32.7646 166.36C33.1976 166.36 33.541 166.189 33.7949 165.848C34.0521 165.503 34.1807 164.992 34.1807 164.314ZM39.498 167C39.446 166.896 39.4036 166.71 39.3711 166.443C38.9512 166.88 38.4499 167.098 37.8672 167.098C37.3464 167.098 36.9183 166.951 36.583 166.658C36.251 166.362 36.085 165.988 36.085 165.535C36.085 164.985 36.2933 164.559 36.71 164.256C37.1299 163.95 37.7191 163.797 38.4775 163.797H39.3564V163.382C39.3564 163.066 39.262 162.815 39.0732 162.63C38.8844 162.441 38.6061 162.347 38.2383 162.347C37.916 162.347 37.6458 162.428 37.4277 162.591C37.2096 162.754 37.1006 162.951 37.1006 163.182H36.1924C36.1924 162.918 36.2852 162.664 36.4707 162.42C36.6595 162.173 36.9134 161.977 37.2324 161.834C37.5547 161.691 37.9079 161.619 38.292 161.619C38.9007 161.619 39.3776 161.772 39.7227 162.078C40.0677 162.381 40.2467 162.799 40.2598 163.333V165.765C40.2598 166.25 40.3216 166.635 40.4453 166.922V167H39.498ZM37.999 166.312C38.2822 166.312 38.5508 166.238 38.8047 166.092C39.0586 165.945 39.2425 165.755 39.3564 165.521V164.437H38.6484C37.5417 164.437 36.9883 164.76 36.9883 165.408C36.9883 165.691 37.0827 165.913 37.2715 166.072C37.4603 166.232 37.7028 166.312 37.999 166.312ZM43.7949 166.36C44.1172 166.36 44.3988 166.263 44.6396 166.067C44.8805 165.872 45.014 165.628 45.04 165.335H45.8945C45.8783 165.638 45.7741 165.926 45.582 166.199C45.39 166.473 45.1328 166.691 44.8105 166.854C44.4915 167.016 44.153 167.098 43.7949 167.098C43.0755 167.098 42.5026 166.858 42.0762 166.38C41.653 165.898 41.4414 165.241 41.4414 164.407V164.256C41.4414 163.742 41.5358 163.284 41.7246 162.884C41.9134 162.483 42.1836 162.173 42.5352 161.951C42.89 161.73 43.3083 161.619 43.79 161.619C44.3825 161.619 44.874 161.797 45.2646 162.151C45.6585 162.506 45.8685 162.967 45.8945 163.533H45.04C45.014 163.191 44.8838 162.911 44.6494 162.693C44.4183 162.472 44.1318 162.361 43.79 162.361C43.3311 162.361 42.9746 162.527 42.7207 162.859C42.4701 163.188 42.3447 163.665 42.3447 164.29V164.461C42.3447 165.07 42.4701 165.538 42.7207 165.867C42.9714 166.196 43.3294 166.36 43.7949 166.36ZM49.1025 167.098C48.3864 167.098 47.8037 166.863 47.3545 166.395C46.9053 165.923 46.6807 165.293 46.6807 164.505V164.339C46.6807 163.815 46.7799 163.348 46.9785 162.938C47.1803 162.524 47.4603 162.202 47.8184 161.971C48.1797 161.736 48.5703 161.619 48.9902 161.619C49.6771 161.619 50.2109 161.845 50.5918 162.298C50.9727 162.75 51.1631 163.398 51.1631 164.241V164.617H47.584C47.597 165.138 47.7484 165.56 48.0381 165.882C48.3311 166.201 48.7021 166.36 49.1514 166.36C49.4704 166.36 49.7406 166.295 49.9619 166.165C50.1833 166.035 50.377 165.862 50.543 165.647L51.0947 166.077C50.652 166.757 49.988 167.098 49.1025 167.098ZM48.9902 162.361C48.6257 162.361 48.3197 162.495 48.0723 162.762C47.8249 163.025 47.6719 163.396 47.6133 163.875H50.2598V163.807C50.2337 163.348 50.11 162.993 49.8887 162.742C49.6673 162.488 49.3678 162.361 48.9902 162.361Z" fill="black"/>
<rect x="10" y="139" width="10" height="10" rx="5" fill="black"/>
<path d="M26.9199 143.831C26.1159 143.6 25.5299 143.317 25.1621 142.981C24.7975 142.643 24.6152 142.226 24.6152 141.731C24.6152 141.172 24.8382 140.709 25.2842 140.345C25.7334 139.977 26.3161 139.793 27.0322 139.793C27.5205 139.793 27.9551 139.887 28.3359 140.076C28.7201 140.265 29.0163 140.525 29.2246 140.857C29.4362 141.189 29.542 141.552 29.542 141.946H28.5996C28.5996 141.517 28.4629 141.18 28.1895 140.936C27.916 140.688 27.5303 140.564 27.0322 140.564C26.57 140.564 26.2087 140.667 25.9482 140.872C25.6911 141.074 25.5625 141.355 25.5625 141.717C25.5625 142.007 25.6846 142.252 25.9287 142.454C26.1761 142.653 26.5944 142.835 27.1836 143.001C27.776 143.167 28.2383 143.351 28.5703 143.553C28.9056 143.751 29.153 143.984 29.3125 144.251C29.4753 144.518 29.5566 144.832 29.5566 145.193C29.5566 145.77 29.332 146.232 28.8828 146.58C28.4336 146.925 27.833 147.098 27.0811 147.098C26.5928 147.098 26.137 147.005 25.7139 146.819C25.2907 146.631 24.9635 146.373 24.7324 146.048C24.5046 145.722 24.3906 145.353 24.3906 144.939H25.333C25.333 145.369 25.4909 145.709 25.8066 145.96C26.1257 146.207 26.5505 146.331 27.0811 146.331C27.5758 146.331 27.9551 146.23 28.2188 146.028C28.4824 145.826 28.6143 145.551 28.6143 145.203C28.6143 144.855 28.4922 144.586 28.248 144.397C28.0039 144.205 27.5612 144.017 26.9199 143.831ZM33.8828 147C33.8307 146.896 33.7884 146.71 33.7559 146.443C33.3359 146.88 32.8346 147.098 32.252 147.098C31.7311 147.098 31.3031 146.951 30.9678 146.658C30.6357 146.362 30.4697 145.988 30.4697 145.535C30.4697 144.985 30.6781 144.559 31.0947 144.256C31.5146 143.95 32.1038 143.797 32.8623 143.797H33.7412V143.382C33.7412 143.066 33.6468 142.815 33.458 142.63C33.2692 142.441 32.9909 142.347 32.623 142.347C32.3008 142.347 32.0306 142.428 31.8125 142.591C31.5944 142.754 31.4854 142.951 31.4854 143.182H30.5771C30.5771 142.918 30.6699 142.664 30.8555 142.42C31.0443 142.173 31.2982 141.977 31.6172 141.834C31.9395 141.691 32.2926 141.619 32.6768 141.619C33.2855 141.619 33.7624 141.772 34.1074 142.078C34.4525 142.381 34.6315 142.799 34.6445 143.333V145.765C34.6445 146.25 34.7064 146.635 34.8301 146.922V147H33.8828ZM32.3838 146.312C32.667 146.312 32.9355 146.238 33.1895 146.092C33.4434 145.945 33.6273 145.755 33.7412 145.521V144.437H33.0332C31.9264 144.437 31.373 144.76 31.373 145.408C31.373 145.691 31.4674 145.913 31.6562 146.072C31.8451 146.232 32.0876 146.312 32.3838 146.312ZM36.5049 147V142.415H35.6699V141.717H36.5049V141.175C36.5049 140.608 36.6562 140.171 36.959 139.861C37.2617 139.552 37.6898 139.397 38.2432 139.397C38.4515 139.397 38.6582 139.425 38.8633 139.48L38.8145 140.213C38.6615 140.184 38.4987 140.169 38.3262 140.169C38.0332 140.169 37.807 140.255 37.6475 140.428C37.488 140.597 37.4082 140.841 37.4082 141.16V141.717H38.5361V142.415H37.4082V147H36.5049ZM41.6123 147.098C40.8962 147.098 40.3135 146.863 39.8643 146.395C39.415 145.923 39.1904 145.293 39.1904 144.505V144.339C39.1904 143.815 39.2897 143.348 39.4883 142.938C39.6901 142.524 39.9701 142.202 40.3281 141.971C40.6895 141.736 41.0801 141.619 41.5 141.619C42.1868 141.619 42.7207 141.845 43.1016 142.298C43.4824 142.75 43.6729 143.398 43.6729 144.241V144.617H40.0938C40.1068 145.138 40.2581 145.56 40.5479 145.882C40.8408 146.201 41.2119 146.36 41.6611 146.36C41.9801 146.36 42.2503 146.295 42.4717 146.165C42.693 146.035 42.8867 145.862 43.0527 145.647L43.6045 146.077C43.1618 146.757 42.4977 147.098 41.6123 147.098ZM41.5 142.361C41.1354 142.361 40.8294 142.495 40.582 142.762C40.3346 143.025 40.1816 143.396 40.123 143.875H42.7695V143.807C42.7435 143.348 42.6198 142.993 42.3984 142.742C42.1771 142.488 41.8776 142.361 41.5 142.361ZM45.9482 140.438V141.717H46.9346V142.415H45.9482V145.691C45.9482 145.903 45.9922 146.062 46.0801 146.17C46.168 146.274 46.3177 146.326 46.5293 146.326C46.6335 146.326 46.7767 146.307 46.959 146.268V147C46.7214 147.065 46.4902 147.098 46.2656 147.098C45.862 147.098 45.5576 146.976 45.3525 146.731C45.1475 146.487 45.0449 146.141 45.0449 145.691V142.415H44.083V141.717H45.0449V140.438H45.9482ZM49.7227 145.677L50.9531 141.717H51.9199L49.7959 147.815C49.4671 148.694 48.9447 149.134 48.2285 149.134L48.0576 149.119L47.7207 149.056V148.323L47.9648 148.343C48.2708 148.343 48.5085 148.281 48.6777 148.157C48.8503 148.034 48.9919 147.807 49.1025 147.479L49.3027 146.941L47.418 141.717H48.4043L49.7227 145.677Z" fill="black"/>
<rect x="10" y="119" width="10" height="10" rx="5" fill="black"/>
<path d="M28.8438 123.714H25.7627V126.233H29.3418V127H24.8252V119.891H29.293V120.662H25.7627V122.947H28.8438V123.714ZM30.0498 124.314C30.0498 123.484 30.2402 122.828 30.6211 122.347C31.002 121.862 31.513 121.619 32.1543 121.619C32.7793 121.619 33.2725 121.829 33.6338 122.249L33.6729 121.717H34.5029V129.031H33.5996V126.512C33.235 126.902 32.75 127.098 32.1445 127.098C31.5065 127.098 30.9971 126.85 30.6162 126.355C30.2386 125.857 30.0498 125.198 30.0498 124.378V124.314ZM30.9531 124.417C30.9531 125.022 31.0801 125.498 31.334 125.843C31.5911 126.188 31.9362 126.36 32.3691 126.36C32.9062 126.36 33.3164 126.123 33.5996 125.647V123.06C33.3132 122.594 32.9062 122.361 32.3789 122.361C31.9427 122.361 31.596 122.535 31.3389 122.884C31.0817 123.229 30.9531 123.74 30.9531 124.417ZM39.2148 126.478C38.8633 126.891 38.3473 127.098 37.667 127.098C37.1038 127.098 36.6742 126.935 36.3779 126.609C36.085 126.281 35.9368 125.796 35.9336 125.154V121.717H36.8369V125.13C36.8369 125.931 37.1624 126.331 37.8135 126.331C38.5036 126.331 38.9626 126.074 39.1904 125.56V121.717H40.0938V127H39.2344L39.2148 126.478ZM42.4521 127H41.5488V121.717H42.4521V127ZM41.4756 120.315C41.4756 120.169 41.5195 120.045 41.6074 119.944C41.6986 119.843 41.832 119.793 42.0078 119.793C42.1836 119.793 42.3171 119.843 42.4082 119.944C42.4993 120.045 42.5449 120.169 42.5449 120.315C42.5449 120.462 42.4993 120.584 42.4082 120.682C42.3171 120.779 42.1836 120.828 42.0078 120.828C41.832 120.828 41.6986 120.779 41.6074 120.682C41.5195 120.584 41.4756 120.462 41.4756 120.315ZM48.3652 124.417C48.3652 125.221 48.1813 125.869 47.8135 126.36C47.4456 126.852 46.9476 127.098 46.3193 127.098C45.6781 127.098 45.1735 126.894 44.8057 126.487V129.031H43.9023V121.717H44.7275L44.7715 122.303C45.1393 121.847 45.6504 121.619 46.3047 121.619C46.9395 121.619 47.4408 121.858 47.8086 122.337C48.1797 122.815 48.3652 123.481 48.3652 124.334V124.417ZM47.4619 124.314C47.4619 123.719 47.335 123.248 47.0811 122.903C46.8271 122.558 46.4788 122.386 46.0361 122.386C45.4893 122.386 45.0791 122.628 44.8057 123.113V125.638C45.0758 126.119 45.4893 126.36 46.0459 126.36C46.4788 126.36 46.8223 126.189 47.0762 125.848C47.3333 125.503 47.4619 124.992 47.4619 124.314ZM50.3672 121.717L50.3916 122.303C50.779 121.847 51.3014 121.619 51.959 121.619C52.6979 121.619 53.2008 121.902 53.4678 122.469C53.6436 122.215 53.8714 122.01 54.1514 121.854C54.4346 121.697 54.7682 121.619 55.1523 121.619C56.3112 121.619 56.9004 122.233 56.9199 123.46V127H56.0166V123.514C56.0166 123.136 55.9303 122.854 55.7578 122.669C55.5853 122.48 55.2956 122.386 54.8887 122.386C54.5534 122.386 54.2751 122.487 54.0537 122.688C53.8324 122.887 53.7038 123.156 53.668 123.494V127H52.7598V123.538C52.7598 122.77 52.3838 122.386 51.6318 122.386C51.0394 122.386 50.6341 122.638 50.416 123.143V127H49.5127V121.717H50.3672ZM60.4795 127.098C59.7633 127.098 59.1807 126.863 58.7314 126.395C58.2822 125.923 58.0576 125.293 58.0576 124.505V124.339C58.0576 123.815 58.1569 123.348 58.3555 122.938C58.5573 122.524 58.8372 122.202 59.1953 121.971C59.5566 121.736 59.9473 121.619 60.3672 121.619C61.054 121.619 61.5879 121.845 61.9688 122.298C62.3496 122.75 62.54 123.398 62.54 124.241V124.617H58.9609C58.974 125.138 59.1253 125.56 59.415 125.882C59.708 126.201 60.0791 126.36 60.5283 126.36C60.8473 126.36 61.1175 126.295 61.3389 126.165C61.5602 126.035 61.7539 125.862 61.9199 125.647L62.4717 126.077C62.029 126.757 61.3649 127.098 60.4795 127.098ZM60.3672 122.361C60.0026 122.361 59.6966 122.495 59.4492 122.762C59.2018 123.025 59.0488 123.396 58.9902 123.875H61.6367V123.807C61.6107 123.348 61.487 122.993 61.2656 122.742C61.0443 122.488 60.7448 122.361 60.3672 122.361ZM64.4443 121.717L64.4736 122.381C64.8773 121.873 65.4046 121.619 66.0557 121.619C67.1722 121.619 67.7354 122.249 67.7451 123.509V127H66.8418V123.504C66.8385 123.123 66.7507 122.841 66.5781 122.659C66.4089 122.477 66.1436 122.386 65.7822 122.386C65.4893 122.386 65.2321 122.464 65.0107 122.62C64.7894 122.776 64.6169 122.981 64.4932 123.235V127H63.5898V121.717H64.4443ZM70.333 120.438V121.717H71.3193V122.415H70.333V125.691C70.333 125.903 70.377 126.062 70.4648 126.17C70.5527 126.274 70.7025 126.326 70.9141 126.326C71.0182 126.326 71.1615 126.307 71.3438 126.268V127C71.1061 127.065 70.875 127.098 70.6504 127.098C70.2467 127.098 69.9424 126.976 69.7373 126.731C69.5322 126.487 69.4297 126.141 69.4297 125.691V122.415H68.4678V121.717H69.4297V120.438H70.333Z" fill="black"/>
<rect x="10" y="99" width="10" height="10" rx="5" fill="black"/>
<path d="M26.0361 99.8906L28.3604 105.691L30.6846 99.8906H31.9004V107H30.9629V104.231L31.0508 101.243L28.7168 107H27.999L25.6699 101.258L25.7627 104.231V107H24.8252V99.8906H26.0361ZM36.6758 107C36.6237 106.896 36.5814 106.71 36.5488 106.443C36.1289 106.88 35.6276 107.098 35.0449 107.098C34.5241 107.098 34.096 106.951 33.7607 106.658C33.4287 106.362 33.2627 105.988 33.2627 105.535C33.2627 104.985 33.471 104.559 33.8877 104.256C34.3076 103.95 34.8968 103.797 35.6553 103.797H36.5342V103.382C36.5342 103.066 36.4398 102.815 36.251 102.63C36.0622 102.441 35.7839 102.347 35.416 102.347C35.0938 102.347 34.8236 102.428 34.6055 102.591C34.3874 102.754 34.2783 102.951 34.2783 103.182H33.3701C33.3701 102.918 33.4629 102.664 33.6484 102.42C33.8372 102.173 34.0911 101.977 34.4102 101.834C34.7324 101.691 35.0856 101.619 35.4697 101.619C36.0785 101.619 36.5553 101.772 36.9004 102.078C37.2454 102.381 37.4245 102.799 37.4375 103.333V105.765C37.4375 106.25 37.4993 106.635 37.623 106.922V107H36.6758ZM35.1768 106.312C35.46 106.312 35.7285 106.238 35.9824 106.092C36.2363 105.945 36.4202 105.755 36.5342 105.521V104.437H35.8262C34.7194 104.437 34.166 104.76 34.166 105.408C34.166 105.691 34.2604 105.913 34.4492 106.072C34.638 106.232 34.8805 106.312 35.1768 106.312ZM39.708 101.717L39.7373 102.381C40.141 101.873 40.6683 101.619 41.3193 101.619C42.4359 101.619 42.999 102.249 43.0088 103.509V107H42.1055V103.504C42.1022 103.123 42.0143 102.841 41.8418 102.659C41.6725 102.477 41.4072 102.386 41.0459 102.386C40.7529 102.386 40.4958 102.464 40.2744 102.62C40.0531 102.776 39.8805 102.981 39.7568 103.235V107H38.8535V101.717H39.708ZM48.834 104.417C48.834 105.221 48.6501 105.869 48.2822 106.36C47.9144 106.852 47.4163 107.098 46.7881 107.098C46.1468 107.098 45.6423 106.894 45.2744 106.487V109.031H44.3711V101.717H45.1963L45.2402 102.303C45.6081 101.847 46.1191 101.619 46.7734 101.619C47.4082 101.619 47.9095 101.858 48.2773 102.337C48.6484 102.815 48.834 103.481 48.834 104.334V104.417ZM47.9307 104.314C47.9307 103.719 47.8037 103.248 47.5498 102.903C47.2959 102.558 46.9476 102.386 46.5049 102.386C45.958 102.386 45.5479 102.628 45.2744 103.113V105.638C45.5446 106.119 45.958 106.36 46.5146 106.36C46.9476 106.36 47.291 106.189 47.5449 105.848C47.8021 105.503 47.9307 104.992 47.9307 104.314ZM49.7471 104.31C49.7471 103.792 49.848 103.326 50.0498 102.913C50.2549 102.5 50.5381 102.181 50.8994 101.956C51.264 101.731 51.679 101.619 52.1445 101.619C52.8639 101.619 53.445 101.868 53.8877 102.366C54.3337 102.864 54.5566 103.527 54.5566 104.354V104.417C54.5566 104.931 54.4574 105.394 54.2588 105.804C54.0635 106.211 53.7819 106.528 53.4141 106.756C53.0495 106.984 52.6296 107.098 52.1543 107.098C51.4382 107.098 50.8571 106.849 50.4111 106.351C49.9684 105.853 49.7471 105.193 49.7471 104.373V104.31ZM50.6553 104.417C50.6553 105.003 50.7904 105.473 51.0605 105.828C51.334 106.183 51.6986 106.36 52.1543 106.36C52.6133 106.36 52.9779 106.181 53.248 105.823C53.5182 105.462 53.6533 104.957 53.6533 104.31C53.6533 103.73 53.515 103.261 53.2383 102.903C52.9648 102.542 52.6003 102.361 52.1445 102.361C51.6986 102.361 51.3389 102.539 51.0654 102.894C50.792 103.248 50.6553 103.756 50.6553 104.417ZM60.3672 105.755L61.3828 101.717H62.2861L60.748 107H60.0156L58.7314 102.996L57.4814 107H56.749L55.2158 101.717H56.1143L57.1543 105.672L58.3848 101.717H59.1123L60.3672 105.755ZM65.4014 107.098C64.6852 107.098 64.1025 106.863 63.6533 106.395C63.2041 105.923 62.9795 105.293 62.9795 104.505V104.339C62.9795 103.815 63.0788 103.348 63.2773 102.938C63.4792 102.524 63.7591 102.202 64.1172 101.971C64.4785 101.736 64.8691 101.619 65.2891 101.619C65.9759 101.619 66.5098 101.845 66.8906 102.298C67.2715 102.75 67.4619 103.398 67.4619 104.241V104.617H63.8828C63.8958 105.138 64.0472 105.56 64.3369 105.882C64.6299 106.201 65.001 106.36 65.4502 106.36C65.7692 106.36 66.0394 106.295 66.2607 106.165C66.4821 106.035 66.6758 105.862 66.8418 105.647L67.3936 106.077C66.9508 106.757 66.2868 107.098 65.4014 107.098ZM65.2891 102.361C64.9245 102.361 64.6185 102.495 64.3711 102.762C64.1237 103.025 63.9707 103.396 63.9121 103.875H66.5586V103.807C66.5326 103.348 66.4089 102.993 66.1875 102.742C65.9661 102.488 65.6667 102.361 65.2891 102.361ZM71.0654 102.527C70.9287 102.505 70.7806 102.493 70.6211 102.493C70.0286 102.493 69.6266 102.745 69.415 103.25V107H68.5117V101.717H69.3906L69.4053 102.327C69.7015 101.855 70.1214 101.619 70.665 101.619C70.8408 101.619 70.9743 101.642 71.0654 101.688V102.527Z" fill="black"/>
<rect x="10" y="79" width="10" height="10" rx="5" fill="black"/>
<path d="M26.0361 79.8906L28.3604 85.6914L30.6846 79.8906H31.9004V87H30.9629V84.2314L31.0508 81.2432L28.7168 87H27.999L25.6699 81.2578L25.7627 84.2314V87H24.8252V79.8906H26.0361ZM36.6758 87C36.6237 86.8958 36.5814 86.7103 36.5488 86.4434C36.1289 86.8796 35.6276 87.0977 35.0449 87.0977C34.5241 87.0977 34.096 86.9512 33.7607 86.6582C33.4287 86.362 33.2627 85.9876 33.2627 85.5352C33.2627 84.985 33.471 84.5586 33.8877 84.2559C34.3076 83.9499 34.8968 83.7969 35.6553 83.7969H36.5342V83.3818C36.5342 83.0661 36.4398 82.8154 36.251 82.6299C36.0622 82.4411 35.7839 82.3467 35.416 82.3467C35.0938 82.3467 34.8236 82.4281 34.6055 82.5908C34.3874 82.7536 34.2783 82.9505 34.2783 83.1816H33.3701C33.3701 82.918 33.4629 82.6641 33.6484 82.4199C33.8372 82.1725 34.0911 81.9772 34.4102 81.834C34.7324 81.6908 35.0856 81.6191 35.4697 81.6191C36.0785 81.6191 36.5553 81.7721 36.9004 82.0781C37.2454 82.3809 37.4245 82.7992 37.4375 83.333V85.7646C37.4375 86.2497 37.4993 86.6354 37.623 86.9219V87H36.6758ZM35.1768 86.3115C35.46 86.3115 35.7285 86.2383 35.9824 86.0918C36.2363 85.9453 36.4202 85.7549 36.5342 85.5205V84.4365H35.8262C34.7194 84.4365 34.166 84.7604 34.166 85.4082C34.166 85.6914 34.2604 85.9128 34.4492 86.0723C34.638 86.2318 34.8805 86.3115 35.1768 86.3115ZM40.0791 80.4375V81.7168H41.0654V82.415H40.0791V85.6914C40.0791 85.903 40.123 86.0625 40.2109 86.1699C40.2988 86.2741 40.4486 86.3262 40.6602 86.3262C40.7643 86.3262 40.9076 86.3066 41.0898 86.2676V87C40.8522 87.0651 40.6211 87.0977 40.3965 87.0977C39.9928 87.0977 39.6885 86.9756 39.4834 86.7314C39.2783 86.4873 39.1758 86.1406 39.1758 85.6914V82.415H38.2139V81.7168H39.1758V80.4375H40.0791ZM44.3174 87.0977C43.6012 87.0977 43.0186 86.8633 42.5693 86.3945C42.1201 85.9225 41.8955 85.2926 41.8955 84.5049V84.3389C41.8955 83.8148 41.9948 83.3477 42.1934 82.9375C42.3952 82.5241 42.6751 82.2018 43.0332 81.9707C43.3945 81.7363 43.7852 81.6191 44.2051 81.6191C44.8919 81.6191 45.4258 81.8454 45.8066 82.2979C46.1875 82.7503 46.3779 83.3981 46.3779 84.2412V84.6172H42.7988C42.8118 85.138 42.9632 85.5596 43.2529 85.8818C43.5459 86.2008 43.917 86.3604 44.3662 86.3604C44.6852 86.3604 44.9554 86.2952 45.1768 86.165C45.3981 86.0348 45.5918 85.8623 45.7578 85.6475L46.3096 86.0771C45.8669 86.7575 45.2028 87.0977 44.3174 87.0977ZM44.2051 82.3613C43.8405 82.3613 43.5345 82.4948 43.2871 82.7617C43.0397 83.0254 42.8867 83.3965 42.8281 83.875H45.4746V83.8066C45.4486 83.3477 45.3249 82.9928 45.1035 82.7422C44.8822 82.4883 44.5827 82.3613 44.2051 82.3613ZM49.9814 82.5273C49.8447 82.5046 49.6966 82.4932 49.5371 82.4932C48.9447 82.4932 48.5426 82.7454 48.3311 83.25V87H47.4277V81.7168H48.3066L48.3213 82.3271C48.6175 81.8551 49.0374 81.6191 49.5811 81.6191C49.7568 81.6191 49.8903 81.6419 49.9814 81.6875V82.5273ZM51.7979 87H50.8945V81.7168H51.7979V87ZM50.8213 80.3154C50.8213 80.1689 50.8652 80.0452 50.9531 79.9443C51.0443 79.8434 51.1777 79.793 51.3535 79.793C51.5293 79.793 51.6628 79.8434 51.7539 79.9443C51.8451 80.0452 51.8906 80.1689 51.8906 80.3154C51.8906 80.4619 51.8451 80.584 51.7539 80.6816C51.6628 80.7793 51.5293 80.8281 51.3535 80.8281C51.1777 80.8281 51.0443 80.7793 50.9531 80.6816C50.8652 80.584 50.8213 80.4619 50.8213 80.3154ZM56.5098 87C56.4577 86.8958 56.4154 86.7103 56.3828 86.4434C55.9629 86.8796 55.4616 87.0977 54.8789 87.0977C54.3581 87.0977 53.93 86.9512 53.5947 86.6582C53.2627 86.362 53.0967 85.9876 53.0967 85.5352C53.0967 84.985 53.305 84.5586 53.7217 84.2559C54.1416 83.9499 54.7308 83.7969 55.4893 83.7969H56.3682V83.3818C56.3682 83.0661 56.2738 82.8154 56.085 82.6299C55.8962 82.4411 55.6178 82.3467 55.25 82.3467C54.9277 82.3467 54.6576 82.4281 54.4395 82.5908C54.2214 82.7536 54.1123 82.9505 54.1123 83.1816H53.2041C53.2041 82.918 53.2969 82.6641 53.4824 82.4199C53.6712 82.1725 53.9251 81.9772 54.2441 81.834C54.5664 81.6908 54.9196 81.6191 55.3037 81.6191C55.9124 81.6191 56.3893 81.7721 56.7344 82.0781C57.0794 82.3809 57.2585 82.7992 57.2715 83.333V85.7646C57.2715 86.2497 57.3333 86.6354 57.457 86.9219V87H56.5098ZM55.0107 86.3115C55.2939 86.3115 55.5625 86.2383 55.8164 86.0918C56.0703 85.9453 56.2542 85.7549 56.3682 85.5205V84.4365H55.6602C54.5534 84.4365 54 84.7604 54 85.4082C54 85.6914 54.0944 85.9128 54.2832 86.0723C54.472 86.2318 54.7145 86.3115 55.0107 86.3115ZM59.6689 87H58.7656V79.5H59.6689V87ZM64.1953 85.5986C64.1953 85.3545 64.1025 85.1657 63.917 85.0322C63.7347 84.8955 63.4141 84.7783 62.9551 84.6807C62.4993 84.583 62.1364 84.4658 61.8662 84.3291C61.5993 84.1924 61.4007 84.0296 61.2705 83.8408C61.1436 83.652 61.0801 83.4274 61.0801 83.167C61.0801 82.734 61.2624 82.3678 61.627 82.0684C61.9948 81.7689 62.4635 81.6191 63.0332 81.6191C63.6322 81.6191 64.1172 81.7738 64.4883 82.083C64.8626 82.3923 65.0498 82.7878 65.0498 83.2695H64.1416C64.1416 83.0221 64.0358 82.8089 63.8242 82.6299C63.6159 82.4508 63.3522 82.3613 63.0332 82.3613C62.7044 82.3613 62.4473 82.4329 62.2617 82.5762C62.0762 82.7194 61.9834 82.9066 61.9834 83.1377C61.9834 83.3558 62.0697 83.5202 62.2422 83.6309C62.4147 83.7415 62.7256 83.8473 63.1748 83.9482C63.6273 84.0492 63.9935 84.1696 64.2734 84.3096C64.5534 84.4495 64.7601 84.6188 64.8936 84.8174C65.0303 85.0127 65.0986 85.252 65.0986 85.5352C65.0986 86.0072 64.9098 86.3864 64.5322 86.6729C64.1546 86.9561 63.6647 87.0977 63.0625 87.0977C62.6393 87.0977 62.265 87.0228 61.9395 86.873C61.6139 86.7233 61.3584 86.515 61.1729 86.248C60.9906 85.9779 60.8994 85.6865 60.8994 85.374H61.8027C61.819 85.6768 61.9395 85.9176 62.1641 86.0967C62.3919 86.2725 62.6914 86.3604 63.0625 86.3604C63.4043 86.3604 63.6777 86.292 63.8828 86.1553C64.0911 86.0153 64.1953 85.8298 64.1953 85.5986Z" fill="black"/>
<rect x="10" y="59" width="10" height="10" rx="5" fill="black"/>
<path d="M25.8311 67H24.8936V59.8906H25.8311V67ZM28.2627 61.7168L28.292 62.3809C28.6956 61.873 29.223 61.6191 29.874 61.6191C30.9906 61.6191 31.5537 62.249 31.5635 63.5088V67H30.6602V63.5039C30.6569 63.123 30.569 62.8415 30.3965 62.6592C30.2272 62.4769 29.9619 62.3857 29.6006 62.3857C29.3076 62.3857 29.0505 62.4639 28.8291 62.6201C28.6077 62.7764 28.4352 62.9814 28.3115 63.2354V67H27.4082V61.7168H28.2627ZM33.3701 67V62.415H32.5352V61.7168H33.3701V61.1748C33.3701 60.6084 33.5215 60.1706 33.8242 59.8613C34.127 59.5521 34.555 59.3975 35.1084 59.3975C35.3167 59.3975 35.5234 59.4251 35.7285 59.4805L35.6797 60.2129C35.5267 60.1836 35.3639 60.1689 35.1914 60.1689C34.8984 60.1689 34.6722 60.2552 34.5127 60.4277C34.3532 60.597 34.2734 60.8411 34.2734 61.1602V61.7168H35.4014V62.415H34.2734V67H33.3701ZM36.1631 64.3096C36.1631 63.792 36.264 63.3265 36.4658 62.9131C36.6709 62.4997 36.9541 62.1807 37.3154 61.9561C37.68 61.7314 38.0951 61.6191 38.5605 61.6191C39.2799 61.6191 39.861 61.8682 40.3037 62.3662C40.7497 62.8643 40.9727 63.5267 40.9727 64.3535V64.417C40.9727 64.9313 40.8734 65.3936 40.6748 65.8037C40.4795 66.2106 40.1979 66.528 39.8301 66.7559C39.4655 66.9837 39.0456 67.0977 38.5703 67.0977C37.8542 67.0977 37.2731 66.8486 36.8271 66.3506C36.3844 65.8525 36.1631 65.1934 36.1631 64.373V64.3096ZM37.0713 64.417C37.0713 65.0029 37.2064 65.4733 37.4766 65.8281C37.75 66.1829 38.1146 66.3604 38.5703 66.3604C39.0293 66.3604 39.3939 66.1813 39.6641 65.8232C39.9342 65.4619 40.0693 64.9574 40.0693 64.3096C40.0693 63.7301 39.931 63.2614 39.6543 62.9033C39.3809 62.542 39.0163 62.3613 38.5605 62.3613C38.1146 62.3613 37.7549 62.5387 37.4814 62.8936C37.208 63.2484 37.0713 63.7562 37.0713 64.417ZM44.6592 62.5273C44.5225 62.5046 44.3743 62.4932 44.2148 62.4932C43.6224 62.4932 43.2204 62.7454 43.0088 63.25V67H42.1055V61.7168H42.9844L42.999 62.3271C43.2952 61.8551 43.7152 61.6191 44.2588 61.6191C44.4346 61.6191 44.568 61.6419 44.6592 61.6875V62.5273ZM46.3438 61.7168L46.3682 62.3027C46.7555 61.847 47.278 61.6191 47.9355 61.6191C48.6745 61.6191 49.1774 61.9023 49.4443 62.4688C49.6201 62.2148 49.848 62.0098 50.1279 61.8535C50.4111 61.6973 50.7448 61.6191 51.1289 61.6191C52.2878 61.6191 52.877 62.2327 52.8965 63.46V67H51.9932V63.5137C51.9932 63.1361 51.9069 62.8545 51.7344 62.6689C51.5618 62.4801 51.2721 62.3857 50.8652 62.3857C50.5299 62.3857 50.2516 62.4867 50.0303 62.6885C49.8089 62.887 49.6803 63.1556 49.6445 63.4941V67H48.7363V63.5381C48.7363 62.7699 48.3604 62.3857 47.6084 62.3857C47.016 62.3857 46.6107 62.638 46.3926 63.1426V67H45.4893V61.7168H46.3438ZM57.5254 67C57.4733 66.8958 57.431 66.7103 57.3984 66.4434C56.9785 66.8796 56.4772 67.0977 55.8945 67.0977C55.3737 67.0977 54.9456 66.9512 54.6104 66.6582C54.2783 66.362 54.1123 65.9876 54.1123 65.5352C54.1123 64.985 54.3206 64.5586 54.7373 64.2559C55.1572 63.9499 55.7464 63.7969 56.5049 63.7969H57.3838V63.3818C57.3838 63.0661 57.2894 62.8154 57.1006 62.6299C56.9118 62.4411 56.6335 62.3467 56.2656 62.3467C55.9434 62.3467 55.6732 62.4281 55.4551 62.5908C55.237 62.7536 55.1279 62.9505 55.1279 63.1816H54.2197C54.2197 62.918 54.3125 62.6641 54.498 62.4199C54.6868 62.1725 54.9408 61.9772 55.2598 61.834C55.582 61.6908 55.9352 61.6191 56.3193 61.6191C56.9281 61.6191 57.4049 61.7721 57.75 62.0781C58.0951 62.3809 58.2741 62.7992 58.2871 63.333V65.7646C58.2871 66.2497 58.349 66.6354 58.4727 66.9219V67H57.5254ZM56.0264 66.3115C56.3096 66.3115 56.5781 66.2383 56.832 66.0918C57.0859 65.9453 57.2699 65.7549 57.3838 65.5205V64.4365H56.6758C55.569 64.4365 55.0156 64.7604 55.0156 65.4082C55.0156 65.6914 55.11 65.9128 55.2988 66.0723C55.4876 66.2318 55.7301 66.3115 56.0264 66.3115ZM60.9287 60.4375V61.7168H61.915V62.415H60.9287V65.6914C60.9287 65.903 60.9727 66.0625 61.0605 66.1699C61.1484 66.2741 61.2982 66.3262 61.5098 66.3262C61.6139 66.3262 61.7572 66.3066 61.9395 66.2676V67C61.7018 67.0651 61.4707 67.0977 61.2461 67.0977C60.8424 67.0977 60.5381 66.9756 60.333 66.7314C60.1279 66.4873 60.0254 66.1406 60.0254 65.6914V62.415H59.0635V61.7168H60.0254V60.4375H60.9287ZM63.9561 67H63.0527V61.7168H63.9561V67ZM62.9795 60.3154C62.9795 60.1689 63.0234 60.0452 63.1113 59.9443C63.2025 59.8434 63.3359 59.793 63.5117 59.793C63.6875 59.793 63.821 59.8434 63.9121 59.9443C64.0033 60.0452 64.0488 60.1689 64.0488 60.3154C64.0488 60.4619 64.0033 60.584 63.9121 60.6816C63.821 60.7793 63.6875 60.8281 63.5117 60.8281C63.3359 60.8281 63.2025 60.7793 63.1113 60.6816C63.0234 60.584 62.9795 60.4619 62.9795 60.3154ZM65.167 64.3096C65.167 63.792 65.2679 63.3265 65.4697 62.9131C65.6748 62.4997 65.958 62.1807 66.3193 61.9561C66.6839 61.7314 67.099 61.6191 67.5645 61.6191C68.2839 61.6191 68.8649 61.8682 69.3076 62.3662C69.7536 62.8643 69.9766 63.5267 69.9766 64.3535V64.417C69.9766 64.9313 69.8773 65.3936 69.6787 65.8037C69.4834 66.2106 69.2018 66.528 68.834 66.7559C68.4694 66.9837 68.0495 67.0977 67.5742 67.0977C66.8581 67.0977 66.277 66.8486 65.8311 66.3506C65.3883 65.8525 65.167 65.1934 65.167 64.373V64.3096ZM66.0752 64.417C66.0752 65.0029 66.2103 65.4733 66.4805 65.8281C66.7539 66.1829 67.1185 66.3604 67.5742 66.3604C68.0332 66.3604 68.3978 66.1813 68.668 65.8232C68.9382 65.4619 69.0732 64.9574 69.0732 64.3096C69.0732 63.7301 68.9349 63.2614 68.6582 62.9033C68.3848 62.542 68.0202 62.3613 67.5645 62.3613C67.1185 62.3613 66.7588 62.5387 66.4854 62.8936C66.2119 63.2484 66.0752 63.7562 66.0752 64.417ZM71.9639 61.7168L71.9932 62.3809C72.3968 61.873 72.9242 61.6191 73.5752 61.6191C74.6917 61.6191 75.2549 62.249 75.2646 63.5088V67H74.3613V63.5039C74.3581 63.123 74.2702 62.8415 74.0977 62.6592C73.9284 62.4769 73.6631 62.3857 73.3018 62.3857C73.0088 62.3857 72.7516 62.4639 72.5303 62.6201C72.3089 62.7764 72.1364 62.9814 72.0127 63.2354V67H71.1094V61.7168H71.9639Z" fill="black"/>
<rect x="10" y="39" width="10" height="10" rx="5" fill="black"/>
<path d="M30.0547 44.7441C29.9668 45.4961 29.6885 46.0771 29.2197 46.4873C28.7542 46.8942 28.1341 47.0977 27.3594 47.0977C26.5195 47.0977 25.8457 46.7965 25.3379 46.1943C24.8333 45.5921 24.5811 44.7865 24.5811 43.7773V43.0938C24.5811 42.4329 24.6982 41.8519 24.9326 41.3506C25.1702 40.8493 25.5055 40.4652 25.9385 40.1982C26.3714 39.9281 26.8727 39.793 27.4424 39.793C28.1976 39.793 28.8031 40.0046 29.2588 40.4277C29.7145 40.8477 29.9798 41.4303 30.0547 42.1758H29.1123C29.0309 41.6094 28.8535 41.1992 28.5801 40.9453C28.3099 40.6914 27.9307 40.5645 27.4424 40.5645C26.8434 40.5645 26.373 40.7858 26.0312 41.2285C25.6927 41.6712 25.5234 42.3011 25.5234 43.1182V43.8066C25.5234 44.5781 25.6846 45.1917 26.0068 45.6475C26.3291 46.1032 26.7799 46.3311 27.3594 46.3311C27.8802 46.3311 28.279 46.2139 28.5557 45.9795C28.8356 45.7419 29.0212 45.3301 29.1123 44.7441H30.0547ZM30.958 44.3096C30.958 43.792 31.0589 43.3265 31.2607 42.9131C31.4658 42.4997 31.749 42.1807 32.1104 41.9561C32.4749 41.7314 32.89 41.6191 33.3555 41.6191C34.0749 41.6191 34.6559 41.8682 35.0986 42.3662C35.5446 42.8643 35.7676 43.5267 35.7676 44.3535V44.417C35.7676 44.9313 35.6683 45.3936 35.4697 45.8037C35.2744 46.2106 34.9928 46.528 34.625 46.7559C34.2604 46.9837 33.8405 47.0977 33.3652 47.0977C32.6491 47.0977 32.068 46.8486 31.6221 46.3506C31.1794 45.8525 30.958 45.1934 30.958 44.373V44.3096ZM31.8662 44.417C31.8662 45.0029 32.0013 45.4733 32.2715 45.8281C32.5449 46.1829 32.9095 46.3604 33.3652 46.3604C33.8242 46.3604 34.1888 46.1813 34.459 45.8232C34.7292 45.4619 34.8643 44.9574 34.8643 44.3096C34.8643 43.7301 34.7259 43.2614 34.4492 42.9033C34.1758 42.542 33.8112 42.3613 33.3555 42.3613C32.9095 42.3613 32.5498 42.5387 32.2764 42.8936C32.0029 43.2484 31.8662 43.7562 31.8662 44.417ZM37.7549 41.7168L37.7842 42.3809C38.1878 41.873 38.7152 41.6191 39.3662 41.6191C40.4827 41.6191 41.0459 42.249 41.0557 43.5088V47H40.1523V43.5039C40.1491 43.123 40.0612 42.8415 39.8887 42.6592C39.7194 42.4769 39.4541 42.3857 39.0928 42.3857C38.7998 42.3857 38.5426 42.4639 38.3213 42.6201C38.0999 42.7764 37.9274 42.9814 37.8037 43.2354V47H36.9004V41.7168H37.7549ZM45.4941 45.5986C45.4941 45.3545 45.4014 45.1657 45.2158 45.0322C45.0335 44.8955 44.7129 44.7783 44.2539 44.6807C43.7982 44.583 43.4352 44.4658 43.165 44.3291C42.8981 44.1924 42.6995 44.0296 42.5693 43.8408C42.4424 43.652 42.3789 43.4274 42.3789 43.167C42.3789 42.734 42.5612 42.3678 42.9258 42.0684C43.2936 41.7689 43.7624 41.6191 44.332 41.6191C44.931 41.6191 45.416 41.7738 45.7871 42.083C46.1615 42.3923 46.3486 42.7878 46.3486 43.2695H45.4404C45.4404 43.0221 45.3346 42.8089 45.123 42.6299C44.9147 42.4508 44.651 42.3613 44.332 42.3613C44.0033 42.3613 43.7461 42.4329 43.5605 42.5762C43.375 42.7194 43.2822 42.9066 43.2822 43.1377C43.2822 43.3558 43.3685 43.5202 43.541 43.6309C43.7135 43.7415 44.0244 43.8473 44.4736 43.9482C44.9261 44.0492 45.2923 44.1696 45.5723 44.3096C45.8522 44.4495 46.0589 44.6188 46.1924 44.8174C46.3291 45.0127 46.3975 45.252 46.3975 45.5352C46.3975 46.0072 46.2087 46.3864 45.8311 46.6729C45.4535 46.9561 44.9635 47.0977 44.3613 47.0977C43.9382 47.0977 43.5638 47.0228 43.2383 46.873C42.9128 46.7233 42.6572 46.515 42.4717 46.248C42.2894 45.9779 42.1982 45.6865 42.1982 45.374H43.1016C43.1178 45.6768 43.2383 45.9176 43.4629 46.0967C43.6908 46.2725 43.9902 46.3604 44.3613 46.3604C44.7031 46.3604 44.9766 46.292 45.1816 46.1553C45.39 46.0153 45.4941 45.8298 45.4941 45.5986ZM48.7998 40.4375V41.7168H49.7861V42.415H48.7998V45.6914C48.7998 45.903 48.8438 46.0625 48.9316 46.1699C49.0195 46.2741 49.1693 46.3262 49.3809 46.3262C49.485 46.3262 49.6283 46.3066 49.8105 46.2676V47C49.5729 47.0651 49.3418 47.0977 49.1172 47.0977C48.7135 47.0977 48.4092 46.9756 48.2041 46.7314C47.999 46.4873 47.8965 46.1406 47.8965 45.6914V42.415H46.9346V41.7168H47.8965V40.4375H48.7998ZM53.3994 42.5273C53.2627 42.5046 53.1146 42.4932 52.9551 42.4932C52.3626 42.4932 51.9606 42.7454 51.749 43.25V47H50.8457V41.7168H51.7246L51.7393 42.3271C52.0355 41.8551 52.4554 41.6191 52.999 41.6191C53.1748 41.6191 53.3083 41.6419 53.3994 41.6875V42.5273ZM57.3008 47C57.2487 46.8958 57.2064 46.7103 57.1738 46.4434C56.7539 46.8796 56.2526 47.0977 55.6699 47.0977C55.1491 47.0977 54.721 46.9512 54.3857 46.6582C54.0537 46.362 53.8877 45.9876 53.8877 45.5352C53.8877 44.985 54.096 44.5586 54.5127 44.2559C54.9326 43.9499 55.5218 43.7969 56.2803 43.7969H57.1592V43.3818C57.1592 43.0661 57.0648 42.8154 56.876 42.6299C56.6872 42.4411 56.4089 42.3467 56.041 42.3467C55.7188 42.3467 55.4486 42.4281 55.2305 42.5908C55.0124 42.7536 54.9033 42.9505 54.9033 43.1816H53.9951C53.9951 42.918 54.0879 42.6641 54.2734 42.4199C54.4622 42.1725 54.7161 41.9772 55.0352 41.834C55.3574 41.6908 55.7106 41.6191 56.0947 41.6191C56.7035 41.6191 57.1803 41.7721 57.5254 42.0781C57.8704 42.3809 58.0495 42.7992 58.0625 43.333V45.7646C58.0625 46.2497 58.1243 46.6354 58.248 46.9219V47H57.3008ZM55.8018 46.3115C56.085 46.3115 56.3535 46.2383 56.6074 46.0918C56.8613 45.9453 57.0452 45.7549 57.1592 45.5205V44.4365H56.4512C55.3444 44.4365 54.791 44.7604 54.791 45.4082C54.791 45.6914 54.8854 45.9128 55.0742 46.0723C55.263 46.2318 55.5055 46.3115 55.8018 46.3115ZM60.46 47H59.5566V41.7168H60.46V47ZM59.4834 40.3154C59.4834 40.1689 59.5273 40.0452 59.6152 39.9443C59.7064 39.8434 59.8398 39.793 60.0156 39.793C60.1914 39.793 60.3249 39.8434 60.416 39.9443C60.5072 40.0452 60.5527 40.1689 60.5527 40.3154C60.5527 40.4619 60.5072 40.584 60.416 40.6816C60.3249 40.7793 60.1914 40.8281 60.0156 40.8281C59.8398 40.8281 59.7064 40.7793 59.6152 40.6816C59.5273 40.584 59.4834 40.4619 59.4834 40.3154ZM62.7646 41.7168L62.7939 42.3809C63.1976 41.873 63.7249 41.6191 64.376 41.6191C65.4925 41.6191 66.0557 42.249 66.0654 43.5088V47H65.1621V43.5039C65.1589 43.123 65.071 42.8415 64.8984 42.6592C64.7292 42.4769 64.4639 42.3857 64.1025 42.3857C63.8096 42.3857 63.5524 42.4639 63.3311 42.6201C63.1097 42.7764 62.9372 42.9814 62.8135 43.2354V47H61.9102V41.7168H62.7646ZM68.6533 40.4375V41.7168H69.6396V42.415H68.6533V45.6914C68.6533 45.903 68.6973 46.0625 68.7852 46.1699C68.873 46.2741 69.0228 46.3262 69.2344 46.3262C69.3385 46.3262 69.4818 46.3066 69.6641 46.2676V47C69.4264 47.0651 69.1953 47.0977 68.9707 47.0977C68.5671 47.0977 68.2627 46.9756 68.0576 46.7314C67.8525 46.4873 67.75 46.1406 67.75 45.6914V42.415H66.7881V41.7168H67.75V40.4375H68.6533Z" fill="black"/>
<rect x="4.5" y="2.5" width="175" height="27" fill="#E7CB00" stroke="#E7CB00" stroke-width="5"/>
<path d="M12.408 10.176H9.312V7.56H18.984V10.176H15.96V27H12.408V10.176ZM20.8491 7.56H24.3531V27H20.8491V7.56ZM27.3624 7.56H31.9464C33.5144 7.56 34.7464 7.776 35.6424 8.208C36.5384 8.624 37.1704 9.272 37.5384 10.152C37.9224 11.016 38.1144 12.168 38.1144 13.608V20.688C38.1144 22.16 37.9224 23.352 37.5384 24.264C37.1704 25.176 36.5464 25.864 35.6664 26.328C34.7864 26.776 33.5944 27 32.0904 27H27.3624V7.56ZM31.9944 24.528C32.7784 24.528 33.3464 24.392 33.6984 24.12C34.0504 23.848 34.2744 23.472 34.3704 22.992C34.4664 22.496 34.5144 21.768 34.5144 20.808V13.368C34.5144 12.504 34.4584 11.848 34.3464 11.4C34.2344 10.952 33.9944 10.624 33.6264 10.416C33.2744 10.192 32.7144 10.08 31.9464 10.08H30.8904V24.528H31.9944Z" fill="black"/>
<defs>
<filter id="filter0_d" x="0" y="0" width="188" height="188" filterUnits="userSpaceOnUse" color-interpolation-filters="sRGB">
<feFlood flood-opacity="0" result="BackgroundImageFix"/>
<feColorMatrix in="SourceAlpha" type="matrix" values="0 0 0 0 0 0 0 0 0 0 0 0 0 0 0 0 0 0 127 0"/>
<feOffset dx="2" dy="4"/>
<feGaussianBlur stdDeviation="2"/>
<feColorMatrix type="matrix" values="0 0 0 0 0 0 0 0 0 0 0 0 0 0 0 0 0 0 0.5 0"/>
<feBlend mode="normal" in2="BackgroundImageFix" result="effect1_dropShadow"/>
<feBlend mode="normal" in="SourceGraphic" in2="effect1_dropShadow" result="shape"/>
</filter>
<filter id="filter1_d" x="142" y="144" width="40" height="40" filterUnits="userSpaceOnUse" color-interpolation-filters="sRGB">
<feFlood flood-opacity="0" result="BackgroundImageFix"/>
<feColorMatrix in="SourceAlpha" type="matrix" values="0 0 0 0 0 0 0 0 0 0 0 0 0 0 0 0 0 0 127 0"/>
<feOffset dx="2" dy="4"/>
<feGaussianBlur stdDeviation="2"/>
<feColorMatrix type="matrix" values="0 0 0 0 0 0 0 0 0 0 0 0 0 0 0 0 0 0 0.5 0"/>
<feBlend mode="normal" in2="BackgroundImageFix" result="effect1_dropShadow"/>
<feBlend mode="normal" in="SourceGraphic" in2="effect1_dropShadow" result="shape"/>
</filter>
<filter id="filter2_d" x="142" y="107" width="40" height="40" filterUnits="userSpaceOnUse" color-interpolation-filters="sRGB">
<feFlood flood-opacity="0" result="BackgroundImageFix"/>
<feColorMatrix in="SourceAlpha" type="matrix" values="0 0 0 0 0 0 0 0 0 0 0 0 0 0 0 0 0 0 127 0"/>
<feOffset dx="2" dy="4"/>
<feGaussianBlur stdDeviation="2"/>
<feColorMatrix type="matrix" values="0 0 0 0 0 0 0 0 0 0 0 0 0 0 0 0 0 0 0.5 0"/>
<feBlend mode="normal" in2="BackgroundImageFix" result="effect1_dropShadow"/>
<feBlend mode="normal" in="SourceGraphic" in2="effect1_dropShadow" result="shape"/>
</filter>
<filter id="filter3_d" x="142" y="73" width="40" height="40" filterUnits="userSpaceOnUse" color-interpolation-filters="sRGB">
<feFlood flood-opacity="0" result="BackgroundImageFix"/>
<feColorMatrix in="SourceAlpha" type="matrix" values="0 0 0 0 0 0 0 0 0 0 0 0 0 0 0 0 0 0 127 0"/>
<feOffset dx="2" dy="4"/>
<feGaussianBlur stdDeviation="2"/>
<feColorMatrix type="matrix" values="0 0 0 0 0 0 0 0 0 0 0 0 0 0 0 0 0 0 0.5 0"/>
<feBlend mode="normal" in2="BackgroundImageFix" result="effect1_dropShadow"/>
<feBlend mode="normal" in="SourceGraphic" in2="effect1_dropShadow" result="shape"/>
</filter>
<filter id="filter4_d" x="142" y="39" width="40" height="40" filterUnits="userSpaceOnUse" color-interpolation-filters="sRGB">
<feFlood flood-opacity="0" result="BackgroundImageFix"/>
<feColorMatrix in="SourceAlpha" type="matrix" values="0 0 0 0 0 0 0 0 0 0 0 0 0 0 0 0 0 0 127 0"/>
<feOffset dx="2" dy="4"/>
<feGaussianBlur stdDeviation="2"/>
<feColorMatrix type="matrix" values="0 0 0 0 0 0 0 0 0 0 0 0 0 0 0 0 0 0 0.5 0"/>
<feBlend mode="normal" in2="BackgroundImageFix" result="effect1_dropShadow"/>
<feBlend mode="normal" in="SourceGraphic" in2="effect1_dropShadow" result="shape"/>
</filter>
</defs>
</svg>
