<svg width="24" height="32" viewBox="0 0 24 32" fill="none" xmlns="http://www.w3.org/2000/svg">
<rect x="0.5" y="0.5" width="23" height="31" rx="1.5" fill="url(#paint0_linear_ifcicon)" stroke="black"/>
<rect y="16" width="24" height="11" fill="black"/>
<path d="M7.19777 18.9H7.95777V27H7.19777V18.9ZM9.39457 18.9H12.3046V19.47H10.1546V22.52H11.9446V23.08H10.1546V27H9.39457V18.9ZM15.132 27.1C14.372 27.1 13.8387 26.8767 13.532 26.43C13.232 25.9833 13.082 25.3633 13.082 24.57V21.35C13.082 20.5367 13.232 19.9133 13.532 19.48C13.8387 19.04 14.372 18.82 15.132 18.82C15.8253 18.82 16.3187 19.0167 16.612 19.41C16.9053 19.8033 17.052 20.3733 17.052 21.12V21.61H16.332V21.14C16.332 20.7533 16.302 20.44 16.242 20.2C16.182 19.9533 16.0653 19.7633 15.892 19.63C15.7187 19.4967 15.4687 19.43 15.142 19.43C14.7887 19.43 14.5187 19.5033 14.332 19.65C14.1453 19.7967 14.0187 20 13.952 20.26C13.8853 20.5133 13.852 20.84 13.852 21.24V24.69C13.852 25.3167 13.9453 25.7733 14.132 26.06C14.3253 26.3467 14.662 26.49 15.142 26.49C15.6153 26.49 15.932 26.3467 16.092 26.06C16.252 25.7667 16.332 25.3233 16.332 24.73V24.2H17.052V24.68C17.052 25.4533 16.9087 26.05 16.622 26.47C16.3353 26.89 15.8387 27.1 15.132 27.1Z" fill="url(#paint1_linear_ifcicon)"/>
</svg>
