<svg width="1276" height="150" viewBox="0 0 1276 150" fill="none" xmlns="http://www.w3.org/2000/svg">
<g filter="url(#filter0_b_planBar)">
<path d="M798 120C798 136.569 784.569 150 768 150L508 150C491.431 150 478 136.569 478 120L478 118L798 118L798 120Z" fill="black" fill-opacity="0.26"/>
</g>
<path d="M623 134H638H653" stroke="#808080" stroke-width="5" stroke-linecap="round" stroke-linejoin="round"/>
<g filter="url(#filter1_b_planBar)">
<path d="M1276 88C1276 104.569 1262.57 118 1246 118L30 118C13.4315 118 -1.17422e-06 104.569 -2.62268e-06 88.0001L-1.03159e-05 0.000111551L1276 0L1276 88Z" fill="black" fill-opacity="0.26"/>
</g>
<path d="M488.418 66L488.734 46.5703H492.367L495.18 60.2227L498.074 46.5703H501.625L501.953 66H499.281L499.047 52.6172L496.246 66H494.172L491.336 52.5703L491.125 66H488.418ZM504.742 49.9336V47.168H508.035V49.9336H504.742ZM504.742 66V52.125H508.023V66H504.742ZM510.824 66V46.5703H514.105V66H510.824ZM519.684 57.5859H522.051V56.2617C522.051 55.5586 521.961 55.0547 521.781 54.75C521.609 54.4453 521.301 54.293 520.855 54.293C520.402 54.293 520.094 54.4648 519.93 54.8086C519.766 55.1523 519.684 55.7773 519.684 56.6836V57.5859ZM520.891 66.2227C519.305 66.2227 518.164 65.7852 517.469 64.9102C516.773 64.0352 516.426 62.7422 516.426 61.0312V57.1055C516.426 55.3945 516.777 54.1016 517.48 53.2266C518.184 52.3516 519.316 51.9141 520.879 51.9141C521.707 51.9141 522.402 52.0352 522.965 52.2773C523.535 52.5195 523.977 52.8867 524.289 53.3789C524.609 53.8711 524.836 54.4414 524.969 55.0898C525.102 55.7305 525.168 56.5039 525.168 57.4102V59.2266H519.684V61.3125C519.684 61.6016 519.684 61.8281 519.684 61.9922C519.691 62.1484 519.707 62.3398 519.73 62.5664C519.754 62.793 519.789 62.9688 519.836 63.0938C519.891 63.2188 519.961 63.3477 520.047 63.4805C520.133 63.6055 520.246 63.6953 520.387 63.75C520.527 63.8047 520.691 63.832 520.879 63.832C521.316 63.832 521.621 63.6797 521.793 63.375C521.965 63.0625 522.051 62.6133 522.051 62.0273V61.2305H525.156V61.7812C525.156 63.2188 524.797 64.3203 524.078 65.0859C523.367 65.8438 522.305 66.2227 520.891 66.2227ZM531.016 66.2227C529.867 66.2227 528.926 65.9023 528.191 65.2617C527.457 64.6211 526.953 63.6992 526.68 62.4961L529.164 61.5938C529.336 62.3594 529.578 62.9414 529.891 63.3398C530.203 63.7305 530.594 63.918 531.062 63.9023C531.406 63.8945 531.688 63.7734 531.906 63.5391C532.133 63.2969 532.238 63.0039 532.223 62.6602C532.191 62.1602 531.734 61.5312 530.852 60.7734L528.988 59.1797C527.645 58.0234 526.988 56.8164 527.02 55.5586C527.043 54.4492 527.418 53.5664 528.145 52.9102C528.879 52.2461 529.812 51.9141 530.945 51.9141C532.031 51.9141 532.914 52.2422 533.594 52.8984C534.273 53.5547 534.715 54.4336 534.918 55.5352L532.762 56.4375C532.465 55 531.91 54.2773 531.098 54.2695C530.754 54.2617 530.477 54.3672 530.266 54.5859C530.062 54.8047 529.961 55.0664 529.961 55.3711C529.953 55.793 530.34 56.3438 531.121 57.0234L533.02 58.7461C533.34 59.0273 533.605 59.2812 533.816 59.5078C534.027 59.7266 534.246 59.9961 534.473 60.3164C534.707 60.6367 534.879 60.9805 534.988 61.3477C535.105 61.7148 535.164 62.1094 535.164 62.5312C535.164 63.7031 534.773 64.6133 533.992 65.2617C533.219 65.9023 532.227 66.2227 531.016 66.2227ZM540.801 66.1875C540.168 66.1797 539.629 66.0742 539.184 65.8711C538.746 65.668 538.406 65.3789 538.164 65.0039C537.93 64.6211 537.758 64.1953 537.648 63.7266C537.547 63.2578 537.496 62.7109 537.496 62.0859V54.293H536.125V52.125H537.496V48.0469H540.789V52.125H542.898V54.293H540.789V62.2969C540.789 62.75 540.887 63.0781 541.082 63.2812C541.285 63.4766 541.605 63.5781 542.043 63.5859C542.348 63.5938 542.68 63.5703 543.039 63.5156V66.0234C542.109 66.1484 541.363 66.2031 540.801 66.1875ZM549.074 66.2227C547.582 66.2227 546.469 65.8047 545.734 64.9688C545.008 64.125 544.645 62.9219 544.645 61.3594V56.7773C544.645 55.2148 545.008 54.0156 545.734 53.1797C546.469 52.3359 547.582 51.9141 549.074 51.9141C550.574 51.9141 551.691 52.3359 552.426 53.1797C553.168 54.0156 553.539 55.2148 553.539 56.7773V61.3594C553.539 62.9219 553.168 64.125 552.426 64.9688C551.691 65.8047 550.574 66.2227 549.074 66.2227ZM549.086 63.9141C549.352 63.9141 549.566 63.8555 549.73 63.7383C549.902 63.6211 550.023 63.4414 550.094 63.1992C550.172 62.9492 550.223 62.7109 550.246 62.4844C550.27 62.25 550.281 61.9492 550.281 61.582V56.5547C550.281 56.2656 550.273 56.0273 550.258 55.8398C550.25 55.6445 550.223 55.4336 550.176 55.207C550.137 54.9805 550.074 54.8047 549.988 54.6797C549.902 54.5469 549.785 54.4375 549.637 54.3516C549.488 54.2578 549.305 54.2109 549.086 54.2109C548.82 54.2109 548.602 54.2734 548.43 54.3984C548.266 54.5156 548.145 54.6992 548.066 54.9492C547.996 55.1914 547.949 55.4297 547.926 55.6641C547.902 55.8906 547.891 56.1875 547.891 56.5547V61.582C547.891 61.8711 547.895 62.1133 547.902 62.3086C547.918 62.4961 547.945 62.7031 547.984 62.9297C548.031 63.1484 548.098 63.3242 548.184 63.457C548.27 63.582 548.387 63.6914 548.535 63.7852C548.684 63.8711 548.867 63.9141 549.086 63.9141ZM555.801 66V52.125H559.082V53.4844C560.199 52.4375 561.328 51.9141 562.469 51.9141C563.258 51.9141 563.832 52.2031 564.191 52.7812C564.559 53.3594 564.742 54.0703 564.742 54.9141V66H561.461V55.6406C561.461 55.2031 561.398 54.8789 561.273 54.668C561.148 54.457 560.906 54.3555 560.547 54.3633C560.141 54.3711 559.652 54.582 559.082 54.9961V66H555.801ZM570.168 57.5859H572.535V56.2617C572.535 55.5586 572.445 55.0547 572.266 54.75C572.094 54.4453 571.785 54.293 571.34 54.293C570.887 54.293 570.578 54.4648 570.414 54.8086C570.25 55.1523 570.168 55.7773 570.168 56.6836V57.5859ZM571.375 66.2227C569.789 66.2227 568.648 65.7852 567.953 64.9102C567.258 64.0352 566.91 62.7422 566.91 61.0312V57.1055C566.91 55.3945 567.262 54.1016 567.965 53.2266C568.668 52.3516 569.801 51.9141 571.363 51.9141C572.191 51.9141 572.887 52.0352 573.449 52.2773C574.02 52.5195 574.461 52.8867 574.773 53.3789C575.094 53.8711 575.32 54.4414 575.453 55.0898C575.586 55.7305 575.652 56.5039 575.652 57.4102V59.2266H570.168V61.3125C570.168 61.6016 570.168 61.8281 570.168 61.9922C570.176 62.1484 570.191 62.3398 570.215 62.5664C570.238 62.793 570.273 62.9688 570.32 63.0938C570.375 63.2188 570.445 63.3477 570.531 63.4805C570.617 63.6055 570.73 63.6953 570.871 63.75C571.012 63.8047 571.176 63.832 571.363 63.832C571.801 63.832 572.105 63.6797 572.277 63.375C572.449 63.0625 572.535 62.6133 572.535 62.0273V61.2305H575.641V61.7812C575.641 63.2188 575.281 64.3203 574.562 65.0859C573.852 65.8438 572.789 66.2227 571.375 66.2227ZM581.5 66.2227C580.352 66.2227 579.41 65.9023 578.676 65.2617C577.941 64.6211 577.438 63.6992 577.164 62.4961L579.648 61.5938C579.82 62.3594 580.062 62.9414 580.375 63.3398C580.688 63.7305 581.078 63.918 581.547 63.9023C581.891 63.8945 582.172 63.7734 582.391 63.5391C582.617 63.2969 582.723 63.0039 582.707 62.6602C582.676 62.1602 582.219 61.5312 581.336 60.7734L579.473 59.1797C578.129 58.0234 577.473 56.8164 577.504 55.5586C577.527 54.4492 577.902 53.5664 578.629 52.9102C579.363 52.2461 580.297 51.9141 581.43 51.9141C582.516 51.9141 583.398 52.2422 584.078 52.8984C584.758 53.5547 585.199 54.4336 585.402 55.5352L583.246 56.4375C582.949 55 582.395 54.2773 581.582 54.2695C581.238 54.2617 580.961 54.3672 580.75 54.5859C580.547 54.8047 580.445 55.0664 580.445 55.3711C580.438 55.793 580.824 56.3438 581.605 57.0234L583.504 58.7461C583.824 59.0273 584.09 59.2812 584.301 59.5078C584.512 59.7266 584.73 59.9961 584.957 60.3164C585.191 60.6367 585.363 60.9805 585.473 61.3477C585.59 61.7148 585.648 62.1094 585.648 62.5312C585.648 63.7031 585.258 64.6133 584.477 65.2617C583.703 65.9023 582.711 66.2227 581.5 66.2227Z" fill="#808080"/>
<g filter="url(#filter2_d_planBar)">
<circle cx="467" cy="56" r="15" stroke="black" stroke-width="2"/>
</g>
<path d="M664.992 54.832H666.129C667.129 54.832 667.805 54.6367 668.156 54.2461C668.508 53.8477 668.684 53.1211 668.684 52.0664C668.684 51.4648 668.66 51 668.613 50.6719C668.566 50.3438 668.457 50.0469 668.285 49.7812C668.113 49.5078 667.855 49.3203 667.512 49.2188C667.176 49.1172 666.719 49.0664 666.141 49.0664H664.992V54.832ZM661.453 66V46.5703H667.043C670.355 46.5703 672.012 48.4102 672.012 52.0898C672.012 53.8945 671.559 55.2188 670.652 56.0625C669.746 56.8984 668.469 57.3164 666.82 57.3164H664.992V66H661.453ZM673.758 66V46.5703H677.027V53.4727C678.121 52.4336 679.273 51.9141 680.484 51.9141C680.812 51.9141 681.105 51.9727 681.363 52.0898C681.629 52.1992 681.844 52.3516 682.008 52.5469C682.18 52.7344 682.32 52.9609 682.43 53.2266C682.547 53.4844 682.629 53.7539 682.676 54.0352C682.723 54.3086 682.746 54.6016 682.746 54.9141V66H679.477V55.6406C679.477 55.2031 679.41 54.8789 679.277 54.668C679.152 54.457 678.91 54.3555 678.551 54.3633C678.121 54.3711 677.613 54.5977 677.027 55.043V66H673.758ZM689.109 63.6797C689.359 63.6797 689.605 63.5859 689.848 63.3984C690.098 63.2109 690.297 63.0195 690.445 62.8242V59.0039C688.82 59.9023 688.008 60.9219 688.008 62.0625C688.008 62.5625 688.102 62.957 688.289 63.2461C688.484 63.5352 688.758 63.6797 689.109 63.6797ZM687.855 66.2227C686.98 66.2148 686.262 65.875 685.699 65.2031C685.145 64.5234 684.867 63.7578 684.867 62.9062C684.867 62.1016 685 61.3984 685.266 60.7969C685.531 60.1953 685.965 59.6797 686.566 59.25C687.176 58.8203 687.68 58.5078 688.078 58.3125C688.477 58.1172 689.09 57.8594 689.918 57.5391C690.152 57.4453 690.328 57.375 690.445 57.3281V56.168C690.445 55.543 690.371 55.0859 690.223 54.7969C690.082 54.5078 689.789 54.3633 689.344 54.3633C688.617 54.3633 688.246 54.8711 688.23 55.8867L688.184 56.7539L685.043 56.6367C685.043 56.5898 685.043 56.5039 685.043 56.3789C685.051 56.2539 685.055 56.1719 685.055 56.1328C685.156 54.6797 685.586 53.6133 686.344 52.9336C687.109 52.2539 688.199 51.9141 689.613 51.9141C690.98 51.9141 691.992 52.2852 692.648 53.0273C693.312 53.7695 693.645 54.8203 693.645 56.1797V62.5195C693.645 63.582 693.73 64.7422 693.902 66H690.938C690.758 65.0938 690.645 64.4141 690.598 63.9609C690.402 64.6016 690.074 65.1406 689.613 65.5781C689.16 66.0078 688.574 66.2227 687.855 66.2227ZM699.656 66.2227C698.508 66.2227 697.566 65.9023 696.832 65.2617C696.098 64.6211 695.594 63.6992 695.32 62.4961L697.805 61.5938C697.977 62.3594 698.219 62.9414 698.531 63.3398C698.844 63.7305 699.234 63.918 699.703 63.9023C700.047 63.8945 700.328 63.7734 700.547 63.5391C700.773 63.2969 700.879 63.0039 700.863 62.6602C700.832 62.1602 700.375 61.5312 699.492 60.7734L697.629 59.1797C696.285 58.0234 695.629 56.8164 695.66 55.5586C695.684 54.4492 696.059 53.5664 696.785 52.9102C697.52 52.2461 698.453 51.9141 699.586 51.9141C700.672 51.9141 701.555 52.2422 702.234 52.8984C702.914 53.5547 703.355 54.4336 703.559 55.5352L701.402 56.4375C701.105 55 700.551 54.2773 699.738 54.2695C699.395 54.2617 699.117 54.3672 698.906 54.5859C698.703 54.8047 698.602 55.0664 698.602 55.3711C698.594 55.793 698.98 56.3438 699.762 57.0234L701.66 58.7461C701.98 59.0273 702.246 59.2812 702.457 59.5078C702.668 59.7266 702.887 59.9961 703.113 60.3164C703.348 60.6367 703.52 60.9805 703.629 61.3477C703.746 61.7148 703.805 62.1094 703.805 62.5312C703.805 63.7031 703.414 64.6133 702.633 65.2617C701.859 65.9023 700.867 66.2227 699.656 66.2227ZM708.574 57.5859H710.941V56.2617C710.941 55.5586 710.852 55.0547 710.672 54.75C710.5 54.4453 710.191 54.293 709.746 54.293C709.293 54.293 708.984 54.4648 708.82 54.8086C708.656 55.1523 708.574 55.7773 708.574 56.6836V57.5859ZM709.781 66.2227C708.195 66.2227 707.055 65.7852 706.359 64.9102C705.664 64.0352 705.316 62.7422 705.316 61.0312V57.1055C705.316 55.3945 705.668 54.1016 706.371 53.2266C707.074 52.3516 708.207 51.9141 709.77 51.9141C710.598 51.9141 711.293 52.0352 711.855 52.2773C712.426 52.5195 712.867 52.8867 713.18 53.3789C713.5 53.8711 713.727 54.4414 713.859 55.0898C713.992 55.7305 714.059 56.5039 714.059 57.4102V59.2266H708.574V61.3125C708.574 61.6016 708.574 61.8281 708.574 61.9922C708.582 62.1484 708.598 62.3398 708.621 62.5664C708.645 62.793 708.68 62.9688 708.727 63.0938C708.781 63.2188 708.852 63.3477 708.938 63.4805C709.023 63.6055 709.137 63.6953 709.277 63.75C709.418 63.8047 709.582 63.832 709.77 63.832C710.207 63.832 710.512 63.6797 710.684 63.375C710.855 63.0625 710.941 62.6133 710.941 62.0273V61.2305H714.047V61.7812C714.047 63.2188 713.688 64.3203 712.969 65.0859C712.258 65.8438 711.195 66.2227 709.781 66.2227ZM719.906 66.2227C718.758 66.2227 717.816 65.9023 717.082 65.2617C716.348 64.6211 715.844 63.6992 715.57 62.4961L718.055 61.5938C718.227 62.3594 718.469 62.9414 718.781 63.3398C719.094 63.7305 719.484 63.918 719.953 63.9023C720.297 63.8945 720.578 63.7734 720.797 63.5391C721.023 63.2969 721.129 63.0039 721.113 62.6602C721.082 62.1602 720.625 61.5312 719.742 60.7734L717.879 59.1797C716.535 58.0234 715.879 56.8164 715.91 55.5586C715.934 54.4492 716.309 53.5664 717.035 52.9102C717.77 52.2461 718.703 51.9141 719.836 51.9141C720.922 51.9141 721.805 52.2422 722.484 52.8984C723.164 53.5547 723.605 54.4336 723.809 55.5352L721.652 56.4375C721.355 55 720.801 54.2773 719.988 54.2695C719.645 54.2617 719.367 54.3672 719.156 54.5859C718.953 54.8047 718.852 55.0664 718.852 55.3711C718.844 55.793 719.23 56.3438 720.012 57.0234L721.91 58.7461C722.23 59.0273 722.496 59.2812 722.707 59.5078C722.918 59.7266 723.137 59.9961 723.363 60.3164C723.598 60.6367 723.77 60.9805 723.879 61.3477C723.996 61.7148 724.055 62.1094 724.055 62.5312C724.055 63.7031 723.664 64.6133 722.883 65.2617C722.109 65.9023 721.117 66.2227 719.906 66.2227Z" fill="#808080"/>
<g filter="url(#filter3_d_planBar)">
<circle cx="640" cy="56" r="15" stroke="black" stroke-width="2"/>
</g>
<path d="M839.316 63.6445C839.652 63.6445 839.938 63.5625 840.172 63.3984C840.406 63.2266 840.582 62.9805 840.699 62.6602C840.824 62.332 840.91 61.9805 840.957 61.6055C841.004 61.2227 841.027 60.7773 841.027 60.2695C841.027 59.9023 841.023 59.625 841.016 59.4375C841.016 59.2422 841.004 58.9922 840.98 58.6875C840.965 58.375 840.934 58.1367 840.887 57.9727C840.848 57.8086 840.785 57.6211 840.699 57.4102C840.613 57.1992 840.512 57.043 840.395 56.9414C840.277 56.832 840.125 56.7422 839.938 56.6719C839.758 56.5938 839.547 56.5547 839.305 56.5547C838.547 56.5547 837.965 56.9336 837.559 57.6914V60.6211C837.559 62.6367 838.145 63.6445 839.316 63.6445ZM839.293 66.2344C838.59 66.2344 837.953 66.125 837.383 65.9062C836.82 65.6875 836.344 65.3867 835.953 65.0039C835.562 64.6211 835.234 64.1602 834.969 63.6211C834.711 63.0742 834.52 62.4844 834.395 61.8516C834.277 61.2188 834.219 60.5391 834.219 59.8125V53.2617C834.219 52.457 834.266 51.7266 834.359 51.0703C834.453 50.4141 834.617 49.7891 834.852 49.1953C835.086 48.5938 835.391 48.0898 835.766 47.6836C836.148 47.2695 836.637 46.9453 837.23 46.7109C837.824 46.4688 838.512 46.3477 839.293 46.3477C842.504 46.3477 844.141 47.9766 844.203 51.2344V51.5156H840.98C840.98 50.625 840.867 49.9766 840.641 49.5703C840.414 49.1641 839.969 48.9609 839.305 48.9609C838.672 48.9609 838.223 49.2734 837.957 49.8984C837.691 50.5156 837.559 51.5469 837.559 52.9922V55.3008C837.785 54.9102 838.125 54.6055 838.578 54.3867C839.031 54.1602 839.562 54.043 840.172 54.0352C842.961 54.0039 844.355 55.8594 844.355 59.6016C844.355 60.5781 844.266 61.457 844.086 62.2383C843.906 63.0117 843.625 63.707 843.242 64.3242C842.859 64.9336 842.332 65.4062 841.66 65.7422C840.996 66.0703 840.207 66.2344 839.293 66.2344ZM854.633 66L851.855 46.5703H854.832L856.426 59.0977L858.5 46.5703H860.879L863 59.1094L864.594 46.5703H867.512L864.734 66H861.91L859.719 53.0273L857.539 66H854.633ZM872.363 57.5859H874.73V56.2617C874.73 55.5586 874.641 55.0547 874.461 54.75C874.289 54.4453 873.98 54.293 873.535 54.293C873.082 54.293 872.773 54.4648 872.609 54.8086C872.445 55.1523 872.363 55.7773 872.363 56.6836V57.5859ZM873.57 66.2227C871.984 66.2227 870.844 65.7852 870.148 64.9102C869.453 64.0352 869.105 62.7422 869.105 61.0312V57.1055C869.105 55.3945 869.457 54.1016 870.16 53.2266C870.863 52.3516 871.996 51.9141 873.559 51.9141C874.387 51.9141 875.082 52.0352 875.645 52.2773C876.215 52.5195 876.656 52.8867 876.969 53.3789C877.289 53.8711 877.516 54.4414 877.648 55.0898C877.781 55.7305 877.848 56.5039 877.848 57.4102V59.2266H872.363V61.3125C872.363 61.6016 872.363 61.8281 872.363 61.9922C872.371 62.1484 872.387 62.3398 872.41 62.5664C872.434 62.793 872.469 62.9688 872.516 63.0938C872.57 63.2188 872.641 63.3477 872.727 63.4805C872.812 63.6055 872.926 63.6953 873.066 63.75C873.207 63.8047 873.371 63.832 873.559 63.832C873.996 63.832 874.301 63.6797 874.473 63.375C874.645 63.0625 874.73 62.6133 874.73 62.0273V61.2305H877.836V61.7812C877.836 63.2188 877.477 64.3203 876.758 65.0859C876.047 65.8438 874.984 66.2227 873.57 66.2227ZM883.098 57.5859H885.465V56.2617C885.465 55.5586 885.375 55.0547 885.195 54.75C885.023 54.4453 884.715 54.293 884.27 54.293C883.816 54.293 883.508 54.4648 883.344 54.8086C883.18 55.1523 883.098 55.7773 883.098 56.6836V57.5859ZM884.305 66.2227C882.719 66.2227 881.578 65.7852 880.883 64.9102C880.188 64.0352 879.84 62.7422 879.84 61.0312V57.1055C879.84 55.3945 880.191 54.1016 880.895 53.2266C881.598 52.3516 882.73 51.9141 884.293 51.9141C885.121 51.9141 885.816 52.0352 886.379 52.2773C886.949 52.5195 887.391 52.8867 887.703 53.3789C888.023 53.8711 888.25 54.4414 888.383 55.0898C888.516 55.7305 888.582 56.5039 888.582 57.4102V59.2266H883.098V61.3125C883.098 61.6016 883.098 61.8281 883.098 61.9922C883.105 62.1484 883.121 62.3398 883.145 62.5664C883.168 62.793 883.203 62.9688 883.25 63.0938C883.305 63.2188 883.375 63.3477 883.461 63.4805C883.547 63.6055 883.66 63.6953 883.801 63.75C883.941 63.8047 884.105 63.832 884.293 63.832C884.73 63.832 885.035 63.6797 885.207 63.375C885.379 63.0625 885.465 62.6133 885.465 62.0273V61.2305H888.57V61.7812C888.57 63.2188 888.211 64.3203 887.492 65.0859C886.781 65.8438 885.719 66.2227 884.305 66.2227ZM890.867 65.9766V46.5469H894.125V57.668L897.594 52.1367L901.145 52.125L897.746 57.6797L901.086 66H897.652L895.18 59.1797L894.125 60.6797V65.9766H890.867ZM905.984 66.2227C904.836 66.2227 903.895 65.9023 903.16 65.2617C902.426 64.6211 901.922 63.6992 901.648 62.4961L904.133 61.5938C904.305 62.3594 904.547 62.9414 904.859 63.3398C905.172 63.7305 905.562 63.918 906.031 63.9023C906.375 63.8945 906.656 63.7734 906.875 63.5391C907.102 63.2969 907.207 63.0039 907.191 62.6602C907.16 62.1602 906.703 61.5312 905.82 60.7734L903.957 59.1797C902.613 58.0234 901.957 56.8164 901.988 55.5586C902.012 54.4492 902.387 53.5664 903.113 52.9102C903.848 52.2461 904.781 51.9141 905.914 51.9141C907 51.9141 907.883 52.2422 908.562 52.8984C909.242 53.5547 909.684 54.4336 909.887 55.5352L907.73 56.4375C907.434 55 906.879 54.2773 906.066 54.2695C905.723 54.2617 905.445 54.3672 905.234 54.5859C905.031 54.8047 904.93 55.0664 904.93 55.3711C904.922 55.793 905.309 56.3438 906.09 57.0234L907.988 58.7461C908.309 59.0273 908.574 59.2812 908.785 59.5078C908.996 59.7266 909.215 59.9961 909.441 60.3164C909.676 60.6367 909.848 60.9805 909.957 61.3477C910.074 61.7148 910.133 62.1094 910.133 62.5312C910.133 63.7031 909.742 64.6133 908.961 65.2617C908.188 65.9023 907.195 66.2227 905.984 66.2227Z" fill="#808080"/>
<g filter="url(#filter4_d_planBar)">
<circle cx="813" cy="56" r="15" stroke="black" stroke-width="2"/>
</g>
<path d="M1009.56 66L1006.79 46.5703H1009.76L1011.36 59.0977L1013.43 46.5703H1015.81L1017.93 59.1094L1019.52 46.5703H1022.44L1019.66 66H1016.84L1014.65 53.0273L1012.47 66H1009.56ZM1027.29 57.5859H1029.66V56.2617C1029.66 55.5586 1029.57 55.0547 1029.39 54.75C1029.22 54.4453 1028.91 54.293 1028.46 54.293C1028.01 54.293 1027.7 54.4648 1027.54 54.8086C1027.38 55.1523 1027.29 55.7773 1027.29 56.6836V57.5859ZM1028.5 66.2227C1026.91 66.2227 1025.77 65.7852 1025.08 64.9102C1024.38 64.0352 1024.04 62.7422 1024.04 61.0312V57.1055C1024.04 55.3945 1024.39 54.1016 1025.09 53.2266C1025.79 52.3516 1026.93 51.9141 1028.49 51.9141C1029.32 51.9141 1030.01 52.0352 1030.57 52.2773C1031.14 52.5195 1031.59 52.8867 1031.9 53.3789C1032.22 53.8711 1032.45 54.4414 1032.58 55.0898C1032.71 55.7305 1032.78 56.5039 1032.78 57.4102V59.2266H1027.29V61.3125C1027.29 61.6016 1027.29 61.8281 1027.29 61.9922C1027.3 62.1484 1027.32 62.3398 1027.34 62.5664C1027.36 62.793 1027.4 62.9688 1027.45 63.0938C1027.5 63.2188 1027.57 63.3477 1027.66 63.4805C1027.74 63.6055 1027.86 63.6953 1028 63.75C1028.14 63.8047 1028.3 63.832 1028.49 63.832C1028.93 63.832 1029.23 63.6797 1029.4 63.375C1029.57 63.0625 1029.66 62.6133 1029.66 62.0273V61.2305H1032.77V61.7812C1032.77 63.2188 1032.41 64.3203 1031.69 65.0859C1030.98 65.8438 1029.91 66.2227 1028.5 66.2227ZM1038.03 57.5859H1040.39V56.2617C1040.39 55.5586 1040.3 55.0547 1040.12 54.75C1039.95 54.4453 1039.64 54.293 1039.2 54.293C1038.75 54.293 1038.44 54.4648 1038.27 54.8086C1038.11 55.1523 1038.03 55.7773 1038.03 56.6836V57.5859ZM1039.23 66.2227C1037.65 66.2227 1036.51 65.7852 1035.81 64.9102C1035.12 64.0352 1034.77 62.7422 1034.77 61.0312V57.1055C1034.77 55.3945 1035.12 54.1016 1035.82 53.2266C1036.53 52.3516 1037.66 51.9141 1039.22 51.9141C1040.05 51.9141 1040.75 52.0352 1041.31 52.2773C1041.88 52.5195 1042.32 52.8867 1042.63 53.3789C1042.95 53.8711 1043.18 54.4414 1043.31 55.0898C1043.45 55.7305 1043.51 56.5039 1043.51 57.4102V59.2266H1038.03V61.3125C1038.03 61.6016 1038.03 61.8281 1038.03 61.9922C1038.04 62.1484 1038.05 62.3398 1038.07 62.5664C1038.1 62.793 1038.13 62.9688 1038.18 63.0938C1038.23 63.2188 1038.3 63.3477 1038.39 63.4805C1038.48 63.6055 1038.59 63.6953 1038.73 63.75C1038.87 63.8047 1039.04 63.832 1039.22 63.832C1039.66 63.832 1039.96 63.6797 1040.14 63.375C1040.31 63.0625 1040.39 62.6133 1040.39 62.0273V61.2305H1043.5V61.7812C1043.5 63.2188 1043.14 64.3203 1042.42 65.0859C1041.71 65.8438 1040.65 66.2227 1039.23 66.2227ZM1045.8 65.9766V46.5469H1049.05V57.668L1052.52 52.1367L1056.07 52.125L1052.68 57.6797L1056.02 66H1052.58L1050.11 59.1797L1049.05 60.6797V65.9766H1045.8Z" fill="#808080"/>
<g filter="url(#filter5_d_planBar)">
<circle cx="986" cy="56" r="15" stroke="black" stroke-width="2"/>
</g>
<path d="M320.352 66.2344C316.93 66.2344 315.133 64.2578 314.961 60.3047L318.043 59.6602C318.121 62.2305 318.855 63.5156 320.246 63.5156C320.785 63.5156 321.184 63.3516 321.441 63.0234C321.707 62.6953 321.84 62.2539 321.84 61.6992C321.84 61.1602 321.742 60.668 321.547 60.2227C321.352 59.7695 321.125 59.4023 320.867 59.1211C320.609 58.832 320.242 58.4766 319.766 58.0547L317.211 55.8398C316.461 55.1836 315.902 54.5039 315.535 53.8008C315.168 53.0898 314.984 52.2031 314.984 51.1406C314.984 49.6328 315.426 48.4609 316.309 47.625C317.199 46.7891 318.418 46.3633 319.965 46.3477C320.676 46.3398 321.305 46.4297 321.852 46.6172C322.398 46.7969 322.848 47.043 323.199 47.3555C323.559 47.6602 323.855 48.043 324.09 48.5039C324.332 48.9648 324.512 49.4453 324.629 49.9453C324.746 50.4375 324.828 50.9883 324.875 51.5977L321.852 52.1953C321.836 51.8047 321.809 51.4648 321.77 51.1758C321.738 50.8867 321.68 50.5938 321.594 50.2969C321.508 50 321.395 49.7617 321.254 49.582C321.121 49.3945 320.938 49.2461 320.703 49.1367C320.477 49.0273 320.211 48.9844 319.906 49.0078C319.383 49.0391 318.98 49.2148 318.699 49.5352C318.426 49.8477 318.289 50.2695 318.289 50.8008C318.289 51.4258 318.41 51.9414 318.652 52.3477C318.902 52.7461 319.289 53.1758 319.812 53.6367L322.344 55.8398C322.766 56.2227 323.133 56.5938 323.445 56.9531C323.758 57.3125 324.055 57.7227 324.336 58.1836C324.625 58.6445 324.844 59.1523 324.992 59.707C325.141 60.2617 325.215 60.8477 325.215 61.4648C325.215 62.8789 324.766 64.0273 323.867 64.9102C322.977 65.793 321.805 66.2344 320.352 66.2344ZM327.195 49.9336V47.168H330.488V49.9336H327.195ZM327.195 66V52.125H330.477V66H327.195ZM333.066 66V52.125H336.184V53.3438C337.113 52.3672 338.211 51.8789 339.477 51.8789C340.633 51.8789 341.402 52.4453 341.785 53.5781C342.762 52.4453 343.93 51.8789 345.289 51.8789C346.062 51.8789 346.684 52.1602 347.152 52.7227C347.621 53.2852 347.855 54.1016 347.855 55.1719V66H344.738V55.4531C344.738 54.9453 344.652 54.5859 344.48 54.375C344.316 54.1641 344.07 54.0625 343.742 54.0703C343.172 54.0859 342.598 54.3555 342.02 54.8789C342.02 54.9102 342.02 54.957 342.02 55.0195C342.027 55.082 342.031 55.1328 342.031 55.1719V66H338.926V55.4531C338.926 54.9453 338.84 54.5859 338.668 54.375C338.504 54.1641 338.254 54.0625 337.918 54.0703C337.371 54.0859 336.793 54.3594 336.184 54.8906V66H333.066ZM355.016 63.8672C355.258 63.8672 355.461 63.8008 355.625 63.668C355.789 63.5273 355.906 63.3281 355.977 63.0703C356.055 62.8047 356.105 62.5352 356.129 62.2617C356.16 61.9805 356.176 61.6445 356.176 61.2539V56.4727C356.176 56.1523 356.156 55.8672 356.117 55.6172C356.086 55.3594 356.027 55.1172 355.941 54.8906C355.855 54.6562 355.727 54.4805 355.555 54.3633C355.383 54.2383 355.176 54.1797 354.934 54.1875C354.504 54.1953 354.051 54.3789 353.574 54.7383V63.4336C354.043 63.7227 354.523 63.8672 355.016 63.8672ZM350.293 70.5703V52.125H353.574V53.1914C354.434 52.332 355.367 51.9062 356.375 51.9141C356.867 51.9219 357.301 52.0352 357.676 52.2539C358.059 52.4727 358.355 52.7461 358.566 53.0742C358.785 53.3945 358.961 53.7773 359.094 54.2227C359.234 54.6602 359.328 55.0703 359.375 55.4531C359.422 55.8281 359.445 56.2109 359.445 56.6016V61.1484C359.445 61.8516 359.387 62.5 359.27 63.0938C359.152 63.6797 358.969 64.2148 358.719 64.6992C358.469 65.1758 358.125 65.5508 357.688 65.8242C357.258 66.0898 356.75 66.2227 356.164 66.2227C355.305 66.2227 354.441 65.8047 353.574 64.9688V70.5703H350.293ZM361.941 66V46.5703H365.223V66H361.941ZM370.801 57.5859H373.168V56.2617C373.168 55.5586 373.078 55.0547 372.898 54.75C372.727 54.4453 372.418 54.293 371.973 54.293C371.52 54.293 371.211 54.4648 371.047 54.8086C370.883 55.1523 370.801 55.7773 370.801 56.6836V57.5859ZM372.008 66.2227C370.422 66.2227 369.281 65.7852 368.586 64.9102C367.891 64.0352 367.543 62.7422 367.543 61.0312V57.1055C367.543 55.3945 367.895 54.1016 368.598 53.2266C369.301 52.3516 370.434 51.9141 371.996 51.9141C372.824 51.9141 373.52 52.0352 374.082 52.2773C374.652 52.5195 375.094 52.8867 375.406 53.3789C375.727 53.8711 375.953 54.4414 376.086 55.0898C376.219 55.7305 376.285 56.5039 376.285 57.4102V59.2266H370.801V61.3125C370.801 61.6016 370.801 61.8281 370.801 61.9922C370.809 62.1484 370.824 62.3398 370.848 62.5664C370.871 62.793 370.906 62.9688 370.953 63.0938C371.008 63.2188 371.078 63.3477 371.164 63.4805C371.25 63.6055 371.363 63.6953 371.504 63.75C371.645 63.8047 371.809 63.832 371.996 63.832C372.434 63.832 372.738 63.6797 372.91 63.375C373.082 63.0625 373.168 62.6133 373.168 62.0273V61.2305H376.273V61.7812C376.273 63.2188 375.914 64.3203 375.195 65.0859C374.484 65.8438 373.422 66.2227 372.008 66.2227Z" fill="black"/>
<g filter="url(#filter6_d_planBar)">
<circle cx="294" cy="56" r="16" fill="white"/>
<circle cx="294" cy="56" r="15" stroke="black" stroke-width="2"/>
</g>
</svg>
