<svg width="50" height="50" viewBox="0 0 50 50" fill="none" xmlns="http://www.w3.org/2000/svg">
	<g v-if="menuDisplayOpen">
		<g filter="url(#filter0_d_DisplayMenuPressed)">
		<circle cx="23" cy="21" r="21" fill="#97D7C7"/>
		</g>
		<path d="M13 29.561L30.1818 32L34 25.6585V12" stroke="black"/>
		<path d="M30 32V15" stroke="black"/>
		<path d="M13 13.8511L12.6164 13.5304L12.5 13.6696V13.8511H13ZM30.1818 15.3191L30.1393 15.8173L30.3547 15.8357L30.5157 15.6913L30.1818 15.3191ZM34 11.8936L34.3339 12.2658L34.7817 11.864L34.3048 11.4973L34 11.8936ZM28.2727 7.48936L28.5775 7.093L28.454 6.998L28.2983 6.99002L28.2727 7.48936ZM18.7273 7L18.7529 6.50066L18.5037 6.48788L18.3437 6.67931L18.7273 7ZM13.5 30V13.8511H12.5V30H13.5ZM12.9574 14.3492L30.1393 15.8173L30.2244 14.821L13.0426 13.3529L12.9574 14.3492ZM30.5157 15.6913L34.3339 12.2658L33.6661 11.5214L29.8479 14.947L30.5157 15.6913ZM34.3048 11.4973L28.5775 7.093L27.9679 7.88572L33.6952 12.29L34.3048 11.4973ZM27.787 7.6078L29.696 15.4376L30.6676 15.2007L28.7585 7.37092L27.787 7.6078ZM28.2983 6.99002L18.7529 6.50066L18.7017 7.49934L28.2471 7.98871L28.2983 6.99002ZM18.3437 6.67931L12.6164 13.5304L13.3836 14.1718L19.1109 7.32069L18.3437 6.67931Z" fill="white"/>
		<path d="M10 31.5L36 10" stroke="black" stroke-width="2" stroke-linecap="round" stroke-dasharray="6 2"/>
	</g>
	<g v-else="menuDisplayOpen">
		<g filter="url(#filter0_d_DisplayMenu)">
		<circle cx="23" cy="21" r="21" fill="url(#paint0_linear_DisplayMenu)"/>
		</g>
		<path d="M13 29.561L30.1818 32L34 25.6585V12" stroke="black"/>
		<path d="M30 32V15" stroke="black"/>
		<path d="M13 13.8511L12.6164 13.5304L12.5 13.6696V13.8511H13ZM30.1818 15.3191L30.1393 15.8173L30.3547 15.8357L30.5157 15.6913L30.1818 15.3191ZM34 11.8936L34.3339 12.2658L34.7817 11.864L34.3048 11.4973L34 11.8936ZM28.2727 7.48936L28.5775 7.093L28.454 6.998L28.2983 6.99002L28.2727 7.48936ZM18.7273 7L18.7529 6.50066L18.5037 6.48788L18.3437 6.67931L18.7273 7ZM13.5 30V13.8511H12.5V30H13.5ZM12.9574 14.3492L30.1393 15.8173L30.2244 14.821L13.0426 13.3529L12.9574 14.3492ZM30.5157 15.6913L34.3339 12.2658L33.6661 11.5214L29.8479 14.947L30.5157 15.6913ZM34.3048 11.4973L28.5775 7.093L27.9679 7.88572L33.6952 12.29L34.3048 11.4973ZM27.787 7.6078L29.696 15.4376L30.6676 15.2007L28.7585 7.37092L27.787 7.6078ZM28.2983 6.99002L18.7529 6.50066L18.7017 7.49934L28.2471 7.98871L28.2983 6.99002ZM18.3437 6.67931L12.6164 13.5304L13.3836 14.1718L19.1109 7.32069L18.3437 6.67931Z" fill="white"/>
		<path d="M10 31.5L36 10" stroke="black" stroke-width="2" stroke-linecap="round" stroke-dasharray="6 2"/>
	</g>
</svg>
