<svg width="50" height="50" viewBox="0 0 50 50" fill="none" xmlns="http://www.w3.org/2000/svg">
	<g v-if="menu3DOpen">
		<g filter="url(#filter0_d_3DMenuPressed)">
		<circle cx="23" cy="21" r="21" fill="#97D7C7"/>
		</g>
		<path d="M11.3867 31V11.5703H14.8789V31H11.3867ZM17.8672 31V11.5703H25.8477V14.0195H21.4062V19.668H24.957V22.1641H21.4062V31H17.8672ZM32.9258 31.2344C32.0898 31.2344 31.3516 31.1289 30.7109 30.918C30.0703 30.707 29.5391 30.4141 29.1172 30.0391C28.7031 29.6641 28.3633 29.1992 28.0977 28.6445C27.8398 28.0898 27.6562 27.4961 27.5469 26.8633C27.4453 26.2227 27.3945 25.5039 27.3945 24.707V17.9336C27.3945 17.0898 27.4492 16.3438 27.5586 15.6953C27.668 15.0391 27.8516 14.4336 28.1094 13.8789C28.3672 13.3164 28.7031 12.8555 29.1172 12.4961C29.5391 12.1367 30.0664 11.8555 30.6992 11.6523C31.3398 11.4492 32.082 11.3477 32.9258 11.3477C33.8945 11.3477 34.7227 11.4766 35.4102 11.7344C36.0977 11.9922 36.6406 12.3711 37.0391 12.8711C37.4375 13.3711 37.7266 13.957 37.9062 14.6289C38.0859 15.293 38.1758 16.0703 38.1758 16.9609V18.625H34.7656V16.9727C34.7656 16.0039 34.7148 15.3516 34.6133 15.0156C34.4102 14.3594 33.9141 14.0078 33.125 13.9609C33.0625 13.9609 33 13.9609 32.9375 13.9609C32.6406 13.9609 32.3789 13.9961 32.1523 14.0664C31.9336 14.1367 31.7539 14.25 31.6133 14.4062C31.4727 14.5547 31.3594 14.7148 31.2734 14.8867C31.1875 15.0586 31.1211 15.2852 31.0742 15.5664C31.0352 15.8398 31.0078 16.0938 30.9922 16.3281C30.9844 16.5625 30.9805 16.8594 30.9805 17.2188V25.4453C30.9805 26.5859 31.1211 27.3984 31.4023 27.8828C31.6914 28.3672 32.2031 28.6094 32.9375 28.6094C33.1875 28.6094 33.4062 28.582 33.5938 28.5273C33.7891 28.4648 33.9492 28.3906 34.0742 28.3047C34.207 28.2109 34.3164 28.082 34.4023 27.918C34.4961 27.7461 34.5664 27.5898 34.6133 27.4492C34.6602 27.3008 34.6953 27.0977 34.7188 26.8398C34.7422 26.582 34.7539 26.3633 34.7539 26.1836C34.7617 26.0039 34.7656 25.7578 34.7656 25.4453V23.7109H38.1758V25.3047C38.1758 26.0312 38.125 26.6836 38.0234 27.2617C37.9219 27.8398 37.7461 28.3828 37.4961 28.8906C37.2539 29.3984 36.9375 29.8203 36.5469 30.1562C36.1562 30.4922 35.6562 30.7578 35.0469 30.9531C34.4375 31.1406 33.7305 31.2344 32.9258 31.2344Z" fill="black"/>
	</g>
	<g v-else="menu3DOpen">
		<g filter="url(#filter0_d_3DMenu)">
		<circle cx="23" cy="21" r="21" fill="url(#paint0_linear_3DMenu)"/>
		</g>
		<path d="M11.3867 31V11.5703H14.8789V31H11.3867ZM17.8672 31V11.5703H25.8477V14.0195H21.4062V19.668H24.957V22.1641H21.4062V31H17.8672ZM32.9258 31.2344C32.0898 31.2344 31.3516 31.1289 30.7109 30.918C30.0703 30.707 29.5391 30.4141 29.1172 30.0391C28.7031 29.6641 28.3633 29.1992 28.0977 28.6445C27.8398 28.0898 27.6562 27.4961 27.5469 26.8633C27.4453 26.2227 27.3945 25.5039 27.3945 24.707V17.9336C27.3945 17.0898 27.4492 16.3438 27.5586 15.6953C27.668 15.0391 27.8516 14.4336 28.1094 13.8789C28.3672 13.3164 28.7031 12.8555 29.1172 12.4961C29.5391 12.1367 30.0664 11.8555 30.6992 11.6523C31.3398 11.4492 32.082 11.3477 32.9258 11.3477C33.8945 11.3477 34.7227 11.4766 35.4102 11.7344C36.0977 11.9922 36.6406 12.3711 37.0391 12.8711C37.4375 13.3711 37.7266 13.957 37.9062 14.6289C38.0859 15.293 38.1758 16.0703 38.1758 16.9609V18.625H34.7656V16.9727C34.7656 16.0039 34.7148 15.3516 34.6133 15.0156C34.4102 14.3594 33.9141 14.0078 33.125 13.9609C33.0625 13.9609 33 13.9609 32.9375 13.9609C32.6406 13.9609 32.3789 13.9961 32.1523 14.0664C31.9336 14.1367 31.7539 14.25 31.6133 14.4062C31.4727 14.5547 31.3594 14.7148 31.2734 14.8867C31.1875 15.0586 31.1211 15.2852 31.0742 15.5664C31.0352 15.8398 31.0078 16.0938 30.9922 16.3281C30.9844 16.5625 30.9805 16.8594 30.9805 17.2188V25.4453C30.9805 26.5859 31.1211 27.3984 31.4023 27.8828C31.6914 28.3672 32.2031 28.6094 32.9375 28.6094C33.1875 28.6094 33.4062 28.582 33.5938 28.5273C33.7891 28.4648 33.9492 28.3906 34.0742 28.3047C34.207 28.2109 34.3164 28.082 34.4023 27.918C34.4961 27.7461 34.5664 27.5898 34.6133 27.4492C34.6602 27.3008 34.6953 27.0977 34.7188 26.8398C34.7422 26.582 34.7539 26.3633 34.7539 26.1836C34.7617 26.0039 34.7656 25.7578 34.7656 25.4453V23.7109H38.1758V25.3047C38.1758 26.0312 38.125 26.6836 38.0234 27.2617C37.9219 27.8398 37.7461 28.3828 37.4961 28.8906C37.2539 29.3984 36.9375 29.8203 36.5469 30.1562C36.1562 30.4922 35.6562 30.7578 35.0469 30.9531C34.4375 31.1406 33.7305 31.2344 32.9258 31.2344Z" fill="black"/>
	</g>
</svg>
