<svg width="50" height="50" viewBox="0 0 50 50" fill="none" xmlns="http://www.w3.org/2000/svg">
<g v-if="menuPlanningOpen">
	<g filter="url(#filter0_d_PlanningMenuPressed)">
	<circle cx="23" cy="21" r="21" fill="#97D7C7"/>
	</g>
	<rect x="9" y="8.53552" width="5" height="5" transform="rotate(-45 9 8.53552)" fill="black"/>
	<rect x="7" y="18" width="20" height="5" fill="black"/>
	<path d="M16.6464 8.64645C16.4512 8.84171 16.4512 9.15829 16.6464 9.35355L19.8284 12.5355C20.0237 12.7308 20.3403 12.7308 20.5355 12.5355C20.7308 12.3403 20.7308 12.0237 20.5355 11.8284L17.7071 9L20.5355 6.17157C20.7308 5.97631 20.7308 5.65973 20.5355 5.46447C20.3403 5.2692 20.0237 5.2692 19.8284 5.46447L16.6464 8.64645ZM24.6464 17.3536C24.8417 17.5488 25.1583 17.5488 25.3536 17.3536L28.5355 14.1716C28.7308 13.9763 28.7308 13.6597 28.5355 13.4645C28.3403 13.2692 28.0237 13.2692 27.8284 13.4645L25 16.2929L22.1716 13.4645C21.9763 13.2692 21.6597 13.2692 21.4645 13.4645C21.2692 13.6597 21.2692 13.9763 21.4645 14.1716L24.6464 17.3536ZM17 9.5C18.2533 9.5 20.1444 9.88011 21.7078 11.0058C23.2458 12.1131 24.5 13.963 24.5 17H25.5C25.5 13.637 24.0876 11.4869 22.2922 10.1942C20.5222 8.91989 18.4133 8.5 17 8.5V9.5Z" fill="black"/>
	<rect x="29" y="27" width="8" height="8" fill="black"/>
	<path d="M27.6464 17.6464C27.4512 17.8417 27.4512 18.1583 27.6464 18.3536L30.8284 21.5355C31.0237 21.7308 31.3403 21.7308 31.5355 21.5355C31.7308 21.3403 31.7308 21.0237 31.5355 20.8284L28.7071 18L31.5355 15.1716C31.7308 14.9763 31.7308 14.6597 31.5355 14.4645C31.3403 14.2692 31.0237 14.2692 30.8284 14.4645L27.6464 17.6464ZM35.6464 26.3536C35.8417 26.5488 36.1583 26.5488 36.3536 26.3536L39.5355 23.1716C39.7308 22.9763 39.7308 22.6597 39.5355 22.4645C39.3403 22.2692 39.0237 22.2692 38.8284 22.4645L36 25.2929L33.1716 22.4645C32.9763 22.2692 32.6597 22.2692 32.4645 22.4645C32.2692 22.6597 32.2692 22.9763 32.4645 23.1716L35.6464 26.3536ZM28 18.5C29.2533 18.5 31.1444 18.8801 32.7078 20.0058C34.2458 21.1131 35.5 22.963 35.5 26H36.5C36.5 22.637 35.0876 20.4869 33.2922 19.1942C31.5222 17.9199 29.4133 17.5 28 17.5V18.5Z" fill="black"/>
</g>
<g v-else="menuPlanningOpen">
	<g filter="url(#filter0_d_PlanningMenu)">
	<circle cx="23" cy="21" r="21" fill="url(#paint0_linear_PlanningMenu)"/>
	</g>
	<rect x="9" y="8.53552" width="5" height="5" transform="rotate(-45 9 8.53552)" fill="black"/>
	<rect x="7" y="18" width="20" height="5" fill="black"/>
	<path d="M16.6464 8.64645C16.4512 8.84171 16.4512 9.15829 16.6464 9.35355L19.8284 12.5355C20.0237 12.7308 20.3403 12.7308 20.5355 12.5355C20.7308 12.3403 20.7308 12.0237 20.5355 11.8284L17.7071 9L20.5355 6.17157C20.7308 5.97631 20.7308 5.65973 20.5355 5.46447C20.3403 5.2692 20.0237 5.2692 19.8284 5.46447L16.6464 8.64645ZM24.6464 17.3536C24.8417 17.5488 25.1583 17.5488 25.3536 17.3536L28.5355 14.1716C28.7308 13.9763 28.7308 13.6597 28.5355 13.4645C28.3403 13.2692 28.0237 13.2692 27.8284 13.4645L25 16.2929L22.1716 13.4645C21.9763 13.2692 21.6597 13.2692 21.4645 13.4645C21.2692 13.6597 21.2692 13.9763 21.4645 14.1716L24.6464 17.3536ZM17 9.5C18.2533 9.5 20.1444 9.88011 21.7078 11.0058C23.2458 12.1131 24.5 13.963 24.5 17H25.5C25.5 13.637 24.0876 11.4869 22.2922 10.1942C20.5222 8.91989 18.4133 8.5 17 8.5V9.5Z" fill="black"/>
	<rect x="29" y="27" width="8" height="8" fill="black"/>
	<path d="M27.6464 17.6464C27.4512 17.8417 27.4512 18.1583 27.6464 18.3536L30.8284 21.5355C31.0237 21.7308 31.3403 21.7308 31.5355 21.5355C31.7308 21.3403 31.7308 21.0237 31.5355 20.8284L28.7071 18L31.5355 15.1716C31.7308 14.9763 31.7308 14.6597 31.5355 14.4645C31.3403 14.2692 31.0237 14.2692 30.8284 14.4645L27.6464 17.6464ZM35.6464 26.3536C35.8417 26.5488 36.1583 26.5488 36.3536 26.3536L39.5355 23.1716C39.7308 22.9763 39.7308 22.6597 39.5355 22.4645C39.3403 22.2692 39.0237 22.2692 38.8284 22.4645L36 25.2929L33.1716 22.4645C32.9763 22.2692 32.6597 22.2692 32.4645 22.4645C32.2692 22.6597 32.2692 22.9763 32.4645 23.1716L35.6464 26.3536ZM28 18.5C29.2533 18.5 31.1444 18.8801 32.7078 20.0058C34.2458 21.1131 35.5 22.963 35.5 26H36.5C36.5 22.637 35.0876 20.4869 33.2922 19.1942C31.5222 17.9199 29.4133 17.5 28 17.5V18.5Z" fill="black"/>
</g>
</svg>
